<?xml version="1.0" encoding="utf-8"?>
<!-- Generator: Adobe Illustrator 25.2.3, SVG Export Plug-In . SVG Version: 6.00 Build 0)  -->
<svg version="1.1" id="圖層_1" xmlns="http://www.w3.org/2000/svg" xmlns:xlink="http://www.w3.org/1999/xlink" x="0px" y="0px"
	 viewBox="0 0 494.8 495" style="enable-background:new 0 0 494.8 495;" xml:space="preserve">
<style type="text/css">
	.st0{fill:#FFFFFF;}
	.st1{fill:#EFBC5F;}
	.st2{fill:#E9B75C;}
	.st3{fill:#E9B65C;}
</style>
<g>
	<path class="st0" d="M494.8,128.5c0,95.4,0,190.7,0,286.1c-2.9,5.1-4,11-7.6,15.8C478.2,442,466.4,447,452,447
		c-32-0.1-64.1,0-96.1-0.1c-3.8,0-5,0.9-4.8,4.8c0.3,7.9,0.2,15.8,0,23.7c-0.1,2.7,0.8,3.7,3.5,3.6c5.8-0.2,11.6-0.1,17.4-0.1
		c11.1,0,10.9,0,11.2,10.9c0.1,4.2-0.9,5.2-5.2,5.2c-84.7-0.1-169.4-0.1-254.1-0.1c-12.6,0-12.4,0-12.1-12.7
		c0.1-2.9,1.1-3.5,3.7-3.4c5.5,0.2,11-0.1,16.4,0.1c2.9,0.1,3.9-0.6,3.8-3.7c-0.2-7.7-0.4-15.5,0-23.2c0.2-4.4-1.3-5.2-5.4-5.2
		c-29.3,0.2-58.6,0.2-87.9,0.1C16.8,446.8,0,430,0,404.6c0-88.9,0-177.8,0-266.7c0-6.8,1-13.5,4.2-19.6c8-15.4,21-22.5,38.1-22.5
		c29.3-0.1,58.6-0.1,87.9,0.1c3.5,0,5-1,6.2-4.2c5.3-13.6,12.6-26,23-36.4c-0.1,8.9,1,17.8-0.6,26.7c-4.7,7.9-8.5,16.2-10.9,25.1
		c-1,3.8-2.5,5-6.6,4.9c-32.7-0.2-65.4,0.3-98.1-0.3c-16.4-0.3-27.4,10.5-27.3,27.1c0.3,74.6,0.2,149.2,0,223.7
		c0,3.7,0.9,4.8,4.7,4.8c30.4-0.2,60.9,0.6,91.3-0.4c13.6-0.4,24.5,2,32.3,13.5c1.3,2,3.3,2.7,5.8,2.6c20.6-0.1,41.2-0.1,61.8,0
		c3.1,0,3.7-1,3.6-3.8c-0.1-15.9,0-31.9-0.1-47.8c0-4,1.8-9.2-0.8-11.5c-2.2-2-7.3-0.7-11.2-0.7c-12.3,0-12.2,0-12.1-12.3
		c0-3.2,1.2-3.7,3.9-3.6c5.8,0.2,11.6,0,17.4,0.1c1.5,0,2.6,0.1,2.9-2.1c1.8-13,1-14-11.8-14c-0.2,0-0.3,0-0.5,0
		c-12.2,0-12.1,0-11.9-12.5c0-2.9,1-3.5,3.6-3.4c5.5,0.2,11-0.2,16.4,0.1c3.5,0.2,4.4-1.1,4.1-4.3c-0.3-3.8-0.3-7.7,0-11.6
		c0.2-3.4-0.6-5.2-4.2-6.2c-5.4-1.4-10.7-3.4-15.8-5.9c-8.2-4-8.2-3.9-3.7-11.8c3.6-6.3,3.6-6.1,10.1-3.1
		c29.3,13.8,59.1,14.8,88.5,1c43.4-20.3,66.7-63.5,59-110.8c-6.2-37.9-28.2-64.6-63.7-79.4c-25.8-10.8-52.1-9.9-78,0.2
		c0-5.7,0-11.5,0-17.2c11.3-3.2,22.7-5.8,34.5-6.3c50.9-2,97.3,27.9,116,75.3c1.4,3.5,3.1,4.3,6.6,4.3c29.2-0.1,58.3-0.1,87.5-0.1
		c14.2,0,25.9,5.1,34.7,16.6C490.9,117.2,492.2,123.2,494.8,128.5z M478.8,257.2c0-39.3-0.3-78.6,0.1-117.9
		c0.2-17.1-10.9-28.5-27.8-27.6c-10.3,0.5-20.6,0.1-30.9,0.1c-17.1,0-34.1,0.1-51.2-0.1c-3.6,0-4.3,1.1-3.7,4.3
		c0.7,3.8,1,7.6,1.4,11.5c4.2,52.6-29.5,104-79.4,120.8c-8,2.7-8.1,2.7-7.9,10.9c0.1,4-1.8,9.2,0.9,11.5c2.3,1.9,7.4,0.6,11.2,0.6
		c12.6,0,12.6,0,12,12.8c-0.1,2.3-0.7,3.1-3,3c-5.6-0.1-11.3,0.2-16.9-0.1c-3.4-0.2-4.3,0.8-4.3,4.2c0.1,12,0,12,11.9,12
		c12.7,0,12.6,0,12.3,12.5c-0.1,3-1.2,3.4-3.7,3.3c-5.3-0.2-10.6,0.2-15.9-0.1c-3.5-0.2-4.6,0.7-4.6,4.4c0.2,18.2,0.2,36.4,0,54.6
		c0,3.9,0.8,5,4.9,5c63.3-0.1,126.6-0.2,189.9,0c4.2,0,4.9-1.3,4.9-5.1C478.7,337.7,478.8,297.5,478.8,257.2z M317.3,431
		c44.9,0,89.9,0,134.8,0c17,0,26.4-9.6,26.8-26.6c0.1-4.5-1.2-5.4-5.5-5.4c-104.4,0.1-208.7,0.1-313.1,0.1c-6.6,0-13.9,1.7-19.6-0.6
		c-5.5-2.2-9.4-8.5-14-13.1c-0.2-0.2-0.5-0.4-0.7-0.7c-1.1-1.4-2.5-1.8-4.2-1.7c-34.1,0-68.3,0.1-102.4,0c-2.9,0-3.5,1.1-3.4,3.7
		c0.1,5.6,0,11.3,0,16.9c0,18,9.4,27.4,27.3,27.4c34.6,0,69.3,0.1,103.9-0.1c3.5,0,4.6,0.6,4.6,4.4c-0.3,13,0,26.1-0.2,39.1
		c-0.1,3.6,0.9,4.5,4.5,4.5c26.7-0.2,53.5-0.1,80.2-0.1c31.6,0,63.1,0,94.7,0.1c3.3,0,4.5-0.7,4.3-4.2c-0.3-7.6-0.4-15.2,0-22.7
		c0.3-4.4-1.2-5.2-5.3-5.2c-47.8,0.1-95.7,0.1-143.5,0.1c-10.9,0-10.7,0-11-11c-0.1-4,1-5,5-5C226.1,431.1,271.7,431,317.3,431z
		 M231.4,351.4c0,9.3,0.1,18.6-0.1,28c-0.1,3,0.8,3.9,3.8,3.8c8.2-0.2,16.4-0.1,24.6,0c2.4,0,3.8-0.2,3.8-3.3
		c-0.1-19.1-0.1-38.2,0-57.4c0-3-1.3-3.3-3.8-3.3c-8.2,0.1-16.4,0.2-24.6,0c-3-0.1-3.8,0.9-3.8,3.8
		C231.5,332.4,231.4,341.9,231.4,351.4z M247.3,271.5c1,0,1.9,0.1,2.9,0c4.3-0.3,9.9,1.9,12.4-0.9c2.5-2.8,0.5-8.3,0.8-12.6
		c0.2-2.9-0.4-4-3.7-3.5c-8.3,1.3-16.7,1.2-25,0.1c-3-0.4-3.6,0.6-3.5,3.3c0.2,3.4,0.2,6.8,0,10.1c-0.1,2.6,0.6,3.7,3.5,3.6
		C239,271.3,243.2,271.5,247.3,271.5z M247.4,303.4c1.3,0,2.6,0,3.9,0c12.7,0,12.6,0,12.2-12.6c-0.1-2.6-0.7-3.7-3.5-3.6
		c-5.5,0.2-10.9,0.1-16.4,0.1c-13.1,0-13,0-12.2,13.2c0.1,2.2,0.6,3.2,3,3.1C238.7,303.3,243,303.4,247.4,303.4z"/>
	<path class="st1" d="M207.8,0c0,7.5,0,15,0,22.5c0,5.7,0,11.5,0,17.2c0,2.1-0.1,4.2-0.1,6.3c0,38.8-0.1,77.6,0.1,116.3
		c0,4-1.1,5.2-5.1,5.1c-12.7-0.2-25.4-0.3-38.1,0c-4.1,0.1-5.1-1.2-5.1-5.2c0.2-24.9,0.1-49.9,0.1-74.8c0-1.9,0.6-3.9-0.7-5.6
		c1.6-8.9,0.5-17.8,0.6-26.7c0-18.4,0.1-36.8,0.1-55.2C175.6,0,191.7,0,207.8,0z"/>
	<path class="st1" d="M271.5,112.1c0,16.9-0.1,33.8,0.1,50.7c0,3.5-0.9,4.7-4.6,4.7c-13.2-0.2-26.4-0.2-39.6,0c-3.2,0-4.1-1-4.1-4.1
		c0.1-34.4,0.1-68.9,0-103.3c0-3.7,1.5-4.2,4.6-4.1c13,0.1,26.1,0.2,39.1,0c3.6-0.1,4.7,0.9,4.6,4.6
		C271.4,77.7,271.5,94.9,271.5,112.1z"/>
	<path class="st2" d="M143.7,255.1c0,5.6,0,11.1,0,16.7c-25.8-0.1-51.5-0.7-77.2,0.2c-6.2,0.2-1.2,7.7-2.6,11.6
		c-0.7,2.1-0.2,3.9,3,3.8c11.9-0.2,23.8,0,35.7-0.1c13.7-0.1,27.4-0.2,41-0.3c0,5.6,0,11.1,0,16.7c-1-0.1-1.9-0.2-2.9-0.2
		c-36.3,0-72.6,0-108.8,0.1c0-5.4,0-10.9,0-16.3c1.4,0,2.9,0.1,4.3,0.1c12.1,0,12,0,11.7-12.2c-0.1-2.6-0.7-3.8-3.5-3.6
		c-4.2,0.2-8.3,0.1-12.5,0.1c0-5.4,0-10.9,0-16.3c30.5,0,61,0.1,91.5,0.1C130.3,255.3,137,255.1,143.7,255.1z"/>
	<path class="st1" d="M287.2,139.7c0-8,0.1-16.1,0-24.1c0-2.7,0.9-3.7,3.6-3.6c13.7,0.1,27.4,0.1,41,0c2.8,0,3.6,1,3.6,3.7
		c-0.1,16.1-0.1,32.2,0,48.3c0,2.7-0.8,3.7-3.6,3.6c-13.7-0.1-27.4-0.1-41,0c-2.8,0-3.6-1-3.6-3.7
		C287.2,155.8,287.2,147.7,287.2,139.7z"/>
	<path class="st3" d="M143.8,318.9c0,5.6,0,11.1,0,16.7c-1-0.1-1.9-0.2-2.9-0.2c-36.3,0-72.5,0-108.8,0c0-5.4,0-10.9,0-16.3
		c35.6,0,71.3,0.1,106.9,0.1C140.6,319.1,142.2,319,143.8,318.9z"/>
	<path class="st0" d="M143.7,255.1c-6.7,0.1-13.5,0.2-20.2,0.2c-30.5,0-61,0-91.5-0.1c0-3.9,0.2-7.7-0.2-11.6
		c-0.3-3.4,0.8-4.2,4.2-4.2c22.7,0.2,45.4,0.1,68,0.1c11.9,0,23.8,0.1,35.7-0.1c3.2-0.1,4.2,0.8,4,4
		C143.5,247.3,143.8,251.2,143.7,255.1z"/>
	<path class="st0" d="M143.8,318.9c-1.6,0.1-3.2,0.3-4.8,0.3c-35.6,0-71.3-0.1-106.9-0.1c0-5.2,0-10.4,0-15.6
		c36.3,0,72.6,0,108.8-0.1c1,0,1.9,0.1,2.9,0.2C143.7,308.7,143.7,313.8,143.8,318.9z"/>
	<path class="st0" d="M32,335.4c36.3,0,72.5,0,108.8,0c1,0,1.9,0.1,2.9,0.2c-0.1,5,1.7,11.4-0.8,14.5c-2.6,3.3-9.3,1-14.2,1
		c-30.7,0.1-61.5,0-92.2,0.1c-3.8,0-5-1-4.7-4.7C32.2,342.8,32,339.1,32,335.4z"/>
	<path class="st0" d="M143.7,287c-13.7,0.1-27.4,0.2-41,0.3c-11.9,0-23.8-0.1-35.7,0.1c-3.2,0-3.8-1.7-3-3.8
		c1.3-3.9-3.6-11.4,2.6-11.6c25.7-0.9,51.5-0.2,77.2-0.2C143.7,276.8,143.7,281.9,143.7,287z"/>
	<path class="st0" d="M143.8,135.3c0,8.4,0,8.4-8.6,8.4c-7.5,0-7.5,0-7.5-7.5c0-8.6,0-8.6,8.8-8.6
		C143.8,127.6,143.8,127.6,143.8,135.3z"/>
	<path class="st0" d="M147.6,168.3c1.6,0,1.7,1.4,2,2.3c1.3,4.1,6,8.9,3.7,12c-2.4,3.3-8.3,4.1-12.8,5.8c-0.8,0.3-1.2-0.8-1.5-1.5
		c-1.5-3.5-3-7.1-4.4-10.6c-0.3-0.8-1-1.9,0.3-2.5C139.1,171.9,143.4,170.1,147.6,168.3z"/>
	<path class="st0" d="M168.4,203.6c1.2,1.1,2.2,2,3.2,3c2.5,2.6,6.8,5.1,7.1,8c0.3,3-4.6,5.1-6.8,8c-2.4,3.2-4.2,3-6.9,0.1
		c-7.8-8.2-7.9-8,0.2-16C166.1,205.7,167.2,204.7,168.4,203.6z"/>
	<path class="st0" d="M32,271.5c4.2,0,8.4,0.1,12.5-0.1c2.8-0.2,3.4,1,3.5,3.6c0.3,12.3,0.4,12.3-11.7,12.2c-1.4,0-2.9-0.1-4.3-0.1
		C32,281.9,32,276.7,32,271.5z"/>
	<path class="st0" d="M462.9,295.3c0,39.5-32.5,72-71.9,71.9c-39.4-0.1-72.2-32.9-71.8-72.1c0.3-39.4,32.4-71.5,71.7-71.7
		C430.2,223.2,462.9,255.8,462.9,295.3z M349.5,332.6c11.1-13.3,21.8-26.1,32.5-38.9c0.9-1.1,1-2.3,1-3.6c0-15.6,0-31.2,0.1-46.8
		c0-2.5-0.8-3.1-3.1-2.5c-16.6,3.7-29.5,12.7-37.5,27.6C330.4,290.9,333.6,312.3,349.5,332.6z M446.1,303.4c-16.8,0-33.2,0-49.6,0
		c-1.5,0-2.4,0.6-3.2,1.7c-10.4,12.5-20.8,25-31.4,37.8c16.5,9.6,33.4,11.2,50.6,3.8C431.3,338.6,442.4,324,446.1,303.4z
		 M422.8,287.2c6.8,0,13.5-0.1,20.3,0c2.3,0,3-0.3,2.6-2.9c-2.8-20.1-23.3-40.6-43.7-43.7c-2.5-0.4-2.9,0.3-2.9,2.6
		c0.1,13.7,0.1,27.3,0,41c0,2.3,0.6,3,3,3C408.9,287.1,415.8,287.2,422.8,287.2z"/>
	<path class="st0" d="M39.7,399.1c8.3,0,8.3,0,8.3,8.2c0,7.7,0,7.7-7.9,7.7c-8.2,0-8.2,0-8.2-8.3C31.9,399.1,31.9,399.1,39.7,399.1z
		"/>
	<path class="st0" d="M71.6,399.1c8.3,0,8.3,0,8.3,8.2c0,7.6,0,7.6-7.4,7.6c-8.7,0-8.7,0-8.7-8.8C63.8,399.1,63.8,399.1,71.6,399.1z
		"/>
	<path class="st0" d="M103.5,415c-7.8,0-7.8,0-7.8-7.7c0-8.2,0-8.2,8.2-8.2c7.9,0,7.9,0,7.9,8.1C111.8,415,111.8,415,103.5,415z"/>
</g>
</svg>
