<?xml version="1.0" encoding="utf-8"?>
<!-- Generator: Adobe Illustrator 25.2.3, SVG Export Plug-In . SVG Version: 6.00 Build 0)  -->
<svg version="1.1" id="圖層_1" xmlns="http://www.w3.org/2000/svg" xmlns:xlink="http://www.w3.org/1999/xlink" x="0px" y="0px"
	 viewBox="0 0 494.7 494.9" style="enable-background:new 0 0 494.7 494.9;" xml:space="preserve">
<style type="text/css">
	.st0{fill:#FFFFFF;}
	.st1{fill:#EEBB5E;}
	.st2{fill:#EFBC5F;}
</style>
<g>
	<path class="st0" d="M119.7,0c16.1,2.4,28.4,13.3,43.1,18.9c7.8,3,15.7,5.6,23.8,8.5c-5.4,10.2-9.3,21-17.7,29.2
		c-1.6,1.6-1.5,3.4-1.5,5.3c-0.2,9.5,0.7,19-1.1,28.4c-2.5,13.4-9.3,24.1-19.7,32.7c-2.4,2-4.3,11.5-2.7,14.1
		c0.9,1.4,2.5,1.3,3.8,1.7c15.2,4.6,30.4,9.1,45.6,13.7c19.1,5.8,29.7,20,29.9,40c0.1,14.6,0,29.2,0,44.5c6.1-4.1,12-6.3,18.9-5.5
		c15.1,1.7,25.1,17.6,19.3,31.7c-1.2,3-1,4.9,1.2,7.1c3,3.1,5.7,6.6,8.5,9.9c7.6,8.9,7.6,8.8,18.7,7.2c1.6-0.2,2-1.4,2.6-2.5
		c15.7-27.8,31.3-55.7,47-83.4c1-1.8,0.8-3-0.3-4.7c-7.8-12.2-4.5-26.9,7.4-33.9c12.1-7.1,26.4-3,33.3,9.8c1.2,2.3,2.5,2.9,4.8,2.8
		c19.9-0.1,39.9-0.1,59.8,0c2.4,0,3.5-0.7,4.7-2.9c5.8-10.9,17.3-15.6,28.5-11.9c10.8,3.6,17.7,14.3,16.3,25.5
		c-1.4,11.5-10.8,20.5-22.8,21c-9.9,0.4-17.4-4.2-22-12.9c-1.3-2.4-2.6-3-5.1-3c-19.8,0.1-39.6,0.1-59.4,0c-2.7,0-3.9,0.9-5.1,3.2
		c-4.8,8.9-12.4,13.3-22.5,12.7c-2.3-0.1-3.1,0.7-4,2.4c-15.6,27.8-31.3,55.7-47,83.5c-1.1,1.9-0.7,3,0.4,4.7
		c6.4,9.8,5.6,20.9-2,29.3c-6.9,7.7-18.4,10-27.8,5.6c-9.9-4.7-14.9-14.7-13.2-25.9c0-0.2,0-0.4,0.1-0.5c4.6-6.7-0.2-10.7-4.1-15
		c-3.3-3.7-6.6-7.5-9.7-11.4c-1.4-1.8-2.8-2.3-4.9-1.6c-4.5,1.5-9,1.1-13.2-0.6c-2.2-0.9-3.5-0.2-5,1.3
		c-14.5,14.6-29.1,29.2-43.6,43.8c-4.5-3.1-8.3-6.9-11.4-11.4c13.1-13.2,26.1-26.4,39.7-40.1c-2.3,0-4.1,0-5.8,0
		c-43.6,0-87.2,0-130.8,0c-24.9,0-49.9,0.1-74.8,0.1c0-29.3,0-58.6,0-87.9c0.8-0.1,0.9-0.7,1.1-1.4c4.2-16.4,15.2-25.8,31.1-30.3
		c14-4,28-8.3,41.9-12.6c2.1-0.6,5.6,0.1,5.6-3.3c-0.1-4.2,1.8-8.6-3.1-12.2c-9.6-7.1-15.8-16.7-18.8-28.3C54.3,82,55.9,68.4,56,55
		c0.3-22.7,15-43,36.2-51.2c3.7-1.4,7.7-1.5,11.1-3.8C108.8,0,114.2,0,119.7,0z M16,220.6c0,10.1,0.1,20.3-0.1,30.4
		c0,3,0.5,4.2,3.9,4.1c8-0.3,16.1-0.2,24.1,0c3.2,0.1,4.1-0.8,4-4c-0.2-16.1-0.1-32.2-0.1-48.3c0-11.7,0-11.5,11.8-11.7
		c3.5,0,4.2,1,4.2,4.3c-0.2,18.5,0,37-0.2,55.5c0,3.5,1,4.3,4.3,4.1c5.8-0.3,11.6-0.1,17.4,0c2.2,0,3.3-0.3,3.6-3
		c1.7-16.8,3.8-33.5,5.5-50.3c0.4-3.9,1.8-7.8,0.3-11.9c-3.9-11-7.5-22.2-11.1-33.3c-0.8-2.5-1.7-3-4.4-2.2
		c-14.7,4.6-29.5,8.9-44.2,13.4c-13.4,4.1-19.1,11.8-19.1,25.9C16,202.6,16,211.6,16,220.6z M207.4,221.5c0-9.7,0.1-19.3,0-29
		c-0.2-12.2-6.2-20.9-17.5-24.4c-15.3-4.8-30.7-9.1-46.1-13.9c-2.7-0.9-3.5-0.2-4.3,2.3c-3.6,11.1-7.4,22.2-11.1,33.3
		c-0.4,1.2-0.7,2.5-0.6,3.7c2.1,19.5,4.3,39,6.4,58.5c0.2,2.3,1.2,3,3.3,2.9c6-0.1,11.9-0.2,17.9,0c3.1,0.1,4-0.7,4-3.9
		c-0.2-16.1-0.1-32.2-0.1-48.3c0-11.7,0-11.6,11.7-11.7c3.6-0.1,4.6,0.9,4.5,4.5c-0.2,18.3,0,36.7-0.2,55c0,3.7,1,4.5,4.5,4.4
		c7.6-0.3,15.1-0.3,22.7,0c3.6,0.1,5-0.7,4.9-4.7C207.2,240.8,207.4,231.1,207.4,221.5z M151.3,68.3c-8.6,3.2-17.3,3.9-26.2,2.7
		c-10.2-1.4-18.8-6.1-27-11.9c-1.6-1.2-3.1-2.4-5.6-1.2c-5.7,2.7-11.7,4.3-18,5c-2.1,0.2-3.1,1-3,3.3c0.3,6.2-0.2,12.5,0.5,18.8
		c1.9,16,11.9,28.6,27,32.8c16.4,4.6,30.8,0.6,42.4-12C151.2,95.2,152.2,82.2,151.3,68.3z M73.5,46.7c7.4-0.9,13.7-3.6,19.8-6.7
		c2.1-1.1,3.6-1,5.6,0.4c5.7,3.9,11.4,7.9,17.4,11.2c15.8,8.7,36.4,3.3,45.8-11.7c0.8-1.3,3.2-3.1-0.5-4.2
		c-10.8-3.4-20.2-9.6-30.1-14.9C109,8.3,78.8,21.8,73.5,46.7z M111.5,199.4c-1.4,2-1.2,4.1-1.4,6.2c-1.4,12.9-2.7,25.8-4.3,38.7
		c-1.4,11-1.5,10.9,9.3,10.8c3,0,3.7-0.6,3.3-3.7c-2-16.1-3.6-32.2-5.4-48.2C112.8,201.9,113.1,200.5,111.5,199.4z M96,133.7
		c-1.6,8.3,1,11.2,8.6,15.8c6,3.6,11.7,2.1,17-1.7c5.1-3.6,7.3-8.2,5.4-14.6c-5,1.5-10,2.1-15.2,2.2
		C106.5,135.5,101.3,134.8,96,133.7z M478.2,183.2c-0.1-4.4-3.7-7.7-8.1-7.6c-4.2,0.2-7.5,3.6-7.5,7.8c0,4.3,3.6,7.9,8,7.8
		C474.9,191.2,478.3,187.6,478.2,183.2z M239.1,247.2c-4.3,0-7.9,3.8-7.8,8.1c0.1,4.1,3.5,7.6,7.7,7.7c4.3,0.1,8.1-3.5,8.1-7.8
		C247.1,251,243.3,247.2,239.1,247.2z M366.7,183.4c0-4.2-3.7-7.9-8-7.9c-4.2,0-7.7,3.4-7.9,7.5c-0.2,4.3,3.4,8.1,7.7,8.2
		C362.9,191.3,366.7,187.7,366.7,183.4z M294.8,311.1c0.1-4.4-3.3-8-7.7-8c-4.3,0-8,3.6-8,7.9c0,4.2,3.4,7.6,7.6,7.7
		C291.2,318.9,294.7,315.6,294.8,311.1z M103.8,166.7c1.9,5.5,3.5,10.2,5,14.9c0.5,1.6,1.3,1.9,2.8,1.9c1.4,0,2.4-0.2,2.9-1.8
		c1.5-4.8,3.2-9.7,5-15.1C114.1,167.5,109.3,167.3,103.8,166.7z"/>
	<path class="st1" d="M171.7,311.2c3.1,4.5,6.9,8.3,11.4,11.4c1.7,3.4,4.8,5.6,7.4,8.2c1.9,1.8,2.1,3.4,0.5,5.4
		c-1.1,1.4-2,2.9-3,4.4c-6.8,10.2-6.8,10.2-1.7,21.3c0.9,1.9,2.1,2.6,4,3c4.6,0.9,9.1,2,13.7,2.7c2.6,0.4,3.5,1.4,3.5,4.1
		c-0.1,12.7-0.1,25.4,0,38.1c0,2.7-1.1,3.7-3.5,4.1c-4.4,0.8-8.8,1.7-13.2,2.5c-2.6,0.5-3.7,2-5.1,4.3c-4.7,7.7-3.2,13.9,2.4,20.6
		c5.2,6.3,4.7,6.7-1.1,12.6c-7.5,7.5-15.1,14.9-22.5,22.6c-2.7,2.8-4.8,3.2-7.6,0.6c-0.8-0.8-2-1.1-2.8-1.9
		c-6.4-6.5-13.2-6.9-20.9-2.2c-2.1,1.3-3.4,2.5-3.8,5c-0.7,4.3-1.9,8.5-2.4,12.8c-0.4,3.2-2,3.7-4.8,3.7c-12.4-0.1-24.8-0.2-37.2,0
		c-3.2,0.1-4.2-1.3-4.7-4c-0.6-3.2-1.2-6.3-1.9-9.4c-0.5-2.4,0-5.7-2.4-6.9c-4-2.1-8.2-3.9-12.5-4.8c-2.4-0.5-4.4,2.3-6.6,3.6
		c-3.6,2.2-7,6.2-10.5,6.2c-3.6,0-6.1-5.1-9.1-8c-6.9-6.7-13.6-13.7-20.5-20.4c-1.9-1.8-2.2-3.2-0.5-5.2c1.1-1.3,2-2.9,3-4.4
		c6.9-10.3,6.8-10.3,1.8-21.5c-1-2.2-2.7-2.6-4.5-3c-5.5-1.1-11-2.1-16.5-3.2c0-15.1,0-30.3,0-45.4c6-1.1,12-2.1,18-3.2
		c1.6-0.3,2.4-1.4,3-2.8c5.3-10.9,5.3-10.9-1.4-20.9c-1-1.5-1.9-3-3-4.4c-1.9-2.3-1.5-4,0.7-6.1c7.8-7.6,15.5-15.4,23.2-23.1
		c5.8-5.8,6.1-6.2,12.6-1c6.5,5.1,12.4,7.5,20.1,2.5c2.5-1.6,4.3-2.8,4.8-5.8c0.7-4.3,1.6-8.5,2.4-12.8c0.4-2.4,1.5-3.4,4.2-3.4
		c12.5,0.2,25.1,0.1,37.6,0c2.7,0,4.1,0.6,4.5,3.6c0.6,4.4,1.8,8.8,2.6,13.2c0.4,2,1,3.5,3.1,4.4c11.2,5,11.2,5.1,21.3-1.7
		c1.5-1,3-1.9,4.4-3c2-1.6,3.5-1.3,5.4,0.5C166.1,306.4,168.2,309.6,171.7,311.2z M159.4,390.5c0.3-41.2-44.5-68.6-81-49.6
		c-7.4,3.8-7.4,3.8-2.7,10.5c0.7,0.9,1.4,1.8,1.9,2.8c1.7,3.4,3.4,3.8,7,1.7c14.4-8.4,32.4-6.2,45.6,5.3
		c11.9,10.3,16.2,28.3,10.9,43.1c-1.2,3.4-5.8,6.5-3.6,10c1.8,3,6.1,4.5,9.1,6.9c2.2,1.8,3,0.9,4.2-1.1
		C156.5,411.1,159.3,401.2,159.4,390.5z M106.4,446.3c5.8,0.2,13.7-1.9,21.2-5.3c8.9-4,8.9-4.1,3.2-12.1c-0.4-0.5-0.8-1-1.1-1.6
		c-1.8-3.5-3.6-4-7.4-1.8c-14.3,8.4-32.4,5.9-45.6-5.6c-11.7-10.2-15.9-28.4-10.4-43.2c1.2-3.3,5.4-6.3,3.5-9.7
		c-1.7-2.9-5.9-4.3-8.7-6.7c-2.6-2.2-3.6-1.1-5,1.3c-4.9,8.3-7.6,17.2-8.1,26.9C46.4,419.8,72.6,447,106.4,446.3z M127.5,390.5
		c-0.1-13.2-10.9-23.8-24.1-23.7c-13,0.1-23.5,10.7-23.5,23.7c0,13.4,10.4,23.9,23.8,23.9C116.9,414.4,127.5,403.8,127.5,390.5z"/>
	<path class="st0" d="M481.7,0c9.3,3.4,12.8,10.2,12.7,20c-0.4,24.3-0.1,48.6-0.1,72.9c0,12.5-6.2,18.7-18.6,18.8
		c-10.1,0.1-20.3,0.1-30.4-0.1c-3.1-0.1-5.5,0.9-7.9,2.7c-11.5,8.8-23.1,17.4-34.7,26.1c-1.1,0.8-2.3,1.7-4.1,3
		c0-9.9-0.1-18.9,0.1-28c0.1-3-0.7-3.9-3.7-3.8c-5.8,0.2-11.6,0.2-17.4,0c-2.3-0.1-3.1,0.6-3,3c0.2,4.3,0.1,8.7,0,13
		c-0.2,8.2-5.5,14.3-13.7,15.5c-2.4,0.4-4.8,0.4-7.2,0.4c-17.4,0-34.7,0.1-52.1,0c-2.9,0-5.2,0.7-7.5,2.5
		c-11.5,8.8-23.1,17.4-34.7,26.1c-1.2,0.9-2.2,2.3-4.4,2.4c0-8.9-0.2-17.6,0.1-26.4c0.2-4-1.2-4.8-4.8-4.6
		c-5.8,0.3-11.6,0.2-17.4,0.1c-11.3-0.2-17.6-6.6-17.7-17.8c0-25.3,0-50.5,0-75.8c0-11.9,6.3-18.2,18.1-18.2
		c32.2,0,64.4-0.1,96.5,0.1c4.5,0,5.6-1.3,5.1-5.3c-0.3-2.2,0.1-4.5-0.1-6.7C334,10,338.1,3.3,347.6,0C392.3,0,437,0,481.7,0z
		 M414.5,111.6c6.8-5.1,12.4-9.2,18-13.5c2.3-1.8,4.5-2.6,7.5-2.5c11.4,0.2,22.8-0.1,34.3,0.2c3.5,0.1,4.2-1,4.1-4.3
		c-0.1-23.5-0.2-47,0-70.5c0-4-1-5.1-5-5c-37.5,0.2-75,0.1-112.5,0.1c-10.2,0-9.9,0-10.3,10.3c-0.2,4.8,1.2,5.8,5.8,5.7
		c12.1-0.3,18.2,6.1,18.3,18.4c0,13.5,0.1,27-0.1,40.5c-0.1,3.6,0.6,4.9,4.6,4.8c10.6-0.3,21.2,0,31.9-0.2c2.7,0,3.7,0.7,3.5,3.5
		C414.3,102.8,414.5,106.6,414.5,111.6z M271.2,143.4c6.6-4.9,12.4-9.2,18.1-13.6c2.2-1.7,4.3-2.4,7-2.4c19.5,0.1,38.9,0,58.4,0.1
		c2.3,0,4.3,0.4,4.2-3.3c-0.2-24.3-0.1-48.6,0-72.9c0-2.8-0.9-3.5-3.6-3.5c-40.2,0.1-80.4,0.1-120.7,0c-2.8,0-3.5,0.9-3.5,3.6
		c0.1,24.1,0.1,48.3,0,72.4c0,3.1,0.9,3.8,3.8,3.7c10.8-0.2,21.6,0.1,32.3-0.1c3.2-0.1,4.2,0.9,4,4
		C271,135.1,271.2,138.8,271.2,143.4z"/>
	<path class="st2" d="M414.4,478c0-86.1,0-172.1-0.1-258.2c0-3.6,0.9-4.7,4.6-4.6c12.9,0.2,25.7,0.3,38.6,0c4-0.1,5.1,1.1,5,5.1
		c-0.1,85.9-0.1,171.8-0.1,257.7C446.4,478.5,430.4,478.4,414.4,478z"/>
	<path class="st2" d="M350.6,478c0-72.6,0-145.1-0.1-217.7c0-4.2,1.1-5.6,5.4-5.5c12.5,0.3,25.1,0.3,37.6,0c4.5-0.1,5.2,1.4,5.2,5.5
		c-0.1,72.6-0.1,145.1-0.1,217.7C382.7,478.5,366.7,478.4,350.6,478z"/>
	<path class="st2" d="M223.1,478c0-43.4,0-86.8-0.1-130.3c0-4,1.1-5.2,5.1-5.1c12.7,0.3,25.4,0.3,38.1,0c4-0.1,5.1,1.1,5.1,5.1
		c-0.1,43.4-0.1,86.8-0.1,130.3C255.2,478.4,239.1,478.4,223.1,478z"/>
	<path class="st2" d="M286.9,478c0-32.8,0.1-65.6-0.1-98.4c0-4,1.1-5.2,5.1-5.1c12.9,0.3,25.7,0.2,38.6,0c3.6-0.1,4.6,1,4.6,4.6
		c-0.1,33-0.1,65.9-0.1,98.9C318.9,478.4,302.9,478.4,286.9,478z"/>
	<path class="st0" d="M286.9,478c16,0.4,32,0.4,48,0c5.2,0.5,10.5,0.5,15.7,0c16,0.4,32,0.4,48,0c5.2,0.5,10.5,0.5,15.7,0
		c16,0.4,32,0.4,48,0c9.5,0.1,19,0.3,28.4,0.2c2.7,0,3.7,0.7,3.5,3.5c-0.3,4,1.3,9.2-0.7,11.7c-2.1,2.7-7.5,0.8-11.4,0.8
		c-89.9,0.1-179.9,0-269.8,0.2c-4.2,0-5.3-0.9-5.2-5.2c0.3-10.9,0.1-10.9,11.1-10.9c1.6,0,3.2-0.2,4.8-0.3c16,0.4,32,0.4,48,0
		C276.4,478.5,281.6,478.5,286.9,478z"/>
	<path class="st0" d="M191.3,486.3c0,8,0,8-8.3,8c-7.5,0-7.5,0-7.5-7.4c0-8.6,0-8.6,8.8-8.6c0.3,0,0.6,0,1,0c4.9-0.9,7,1.1,6.1,6.1
		C191.2,485,191.3,485.6,191.3,486.3z"/>
	<path class="st0" d="M159.4,390.5c-0.1,10.7-2.9,20.6-8.6,29.7c-1.2,2-2,2.9-4.2,1.1c-3-2.4-7.2-3.9-9.1-6.9
		c-2.2-3.5,2.4-6.6,3.6-10c5.3-14.8,1-32.8-10.9-43.1c-13.2-11.5-31.2-13.7-45.6-5.3c-3.6,2.1-5.3,1.7-7-1.7c-0.5-1-1.3-1.8-1.9-2.8
		c-4.7-6.6-4.7-6.6,2.7-10.5C114.9,321.9,159.6,349.3,159.4,390.5z"/>
	<path class="st0" d="M106.4,446.3c-33.8,0.7-60-26.5-58.4-57.8c0.5-9.7,3.2-18.6,8.1-26.9c1.4-2.3,2.4-3.4,5-1.3
		c2.8,2.4,7,3.8,8.7,6.7c1.9,3.3-2.3,6.4-3.5,9.7c-5.5,14.8-1.3,33,10.4,43.2c13.2,11.5,31.2,14,45.6,5.6c3.8-2.2,5.6-1.7,7.4,1.8
		c0.3,0.6,0.7,1,1.1,1.6c5.7,8,5.7,8-3.2,12.1C120.1,444.4,112.2,446.5,106.4,446.3z"/>
	<path class="st0" d="M127.5,390.5c0.1,13.2-10.6,23.9-23.8,23.9c-13.4,0-23.9-10.5-23.8-23.9c0-13.1,10.5-23.6,23.5-23.7
		C116.6,366.7,127.4,377.3,127.5,390.5z M103.9,398.6c4.2-0.2,7.8-4.1,7.6-8.3c-0.2-4.4-4-7.8-8.3-7.5c-4.1,0.3-7.5,3.9-7.5,7.9
		C95.8,395,99.7,398.7,103.9,398.6z"/>
	<path class="st1" d="M103.9,398.6c-4.1,0.1-8.1-3.6-8.2-7.8c-0.1-4,3.4-7.7,7.5-7.9c4.3-0.3,8.1,3.1,8.3,7.5
		C111.7,394.5,108.1,398.4,103.9,398.6z"/>
	<path class="st0" d="M414.8,47.9c7.8,0,7.8,0,7.8,7.8c0,8.1,0,8.1-8.3,8.1c-7.8,0-7.8,0-7.8-7.7C406.5,47.9,406.5,47.9,414.8,47.9z
		"/>
	<path class="st0" d="M438.4,55.3c0-7.4,0-7.4,7.6-7.4c8.5,0,8.5,0,8.5,8.5c0,7.4,0,7.4-7.2,7.4c-0.2,0-0.3,0-0.5,0
		C438.4,63.8,438.4,63.8,438.4,55.3z"/>
	<path class="st0" d="M342.6,95.7c0,4.3,0,8.7,0.2,13c0.2,2.7-1,3.1-3.4,3.1c-29.7-0.1-59.3-0.1-89,0c-2.4,0-3.5-0.4-3.4-3.1
		c0.2-4.3,0.2-8.7,0.2-13C279.1,95.7,310.9,95.7,342.6,95.7z"/>
	<path class="st0" d="M247.3,79.8c-0.1-4.5,0-9-0.2-13.5c-0.1-2.2,0.8-2.6,2.8-2.6c30.1,0.1,60.1,0.1,90.2,0c2,0,2.9,0.4,2.8,2.6
		c-0.2,4.5-0.2,9-0.2,13.5C310.8,79.8,279.1,79.8,247.3,79.8z"/>
</g>
</svg>
