<svg width="1440" height="1045" viewBox="0 0 1440 1045" fill="none" xmlns="http://www.w3.org/2000/svg">
<g clip-path="url(#clip0_111_334)">
<g opacity="0.3" clip-path="url(#clip1_111_334)">
<path d="M720.01 2255.52C719.916 2255.52 719.825 2255.46 719.758 2255.36C719.691 2255.25 719.653 2255.11 719.653 2254.97V794.772C719.653 794.626 719.691 794.486 719.758 794.383C719.825 794.28 719.916 794.221 720.01 794.221C720.105 794.221 720.196 794.28 720.263 794.383C720.33 794.486 720.368 794.626 720.368 794.772V2254.97C720.368 2255.11 720.33 2255.25 720.263 2255.36C720.196 2255.46 720.105 2255.52 720.01 2255.52Z" fill="white"/>
<path d="M156.51 2255.52C156.449 2255.52 156.388 2255.49 156.335 2255.45C156.281 2255.4 156.236 2255.34 156.204 2255.26C156.171 2255.18 156.153 2255.08 156.15 2254.99C156.148 2254.9 156.161 2254.8 156.188 2254.72L630.009 794.525C630.03 794.46 630.06 794.402 630.095 794.355C630.131 794.307 630.172 794.271 630.217 794.249C630.261 794.226 630.308 794.217 630.355 794.222C630.402 794.227 630.448 794.247 630.49 794.279C630.532 794.312 630.569 794.357 630.6 794.412C630.631 794.467 630.654 794.53 630.669 794.599C630.684 794.668 630.69 794.741 630.686 794.813C630.683 794.885 630.67 794.955 630.649 795.02L156.828 2255.21C156.798 2255.3 156.753 2255.38 156.697 2255.43C156.641 2255.49 156.576 2255.52 156.51 2255.52Z" fill="white"/>
<path d="M1280.61 2255.52C1280.54 2255.52 1280.48 2255.49 1280.42 2255.44C1280.36 2255.38 1280.32 2255.31 1280.29 2255.21L808.081 795.015C808.059 794.95 808.045 794.879 808.041 794.805C808.036 794.732 808.041 794.658 808.056 794.588C808.071 794.517 808.094 794.452 808.125 794.396C808.156 794.34 808.195 794.294 808.237 794.262C808.28 794.229 808.327 794.21 808.375 794.205C808.422 794.201 808.47 794.211 808.516 794.236C808.561 794.26 808.602 794.298 808.637 794.348C808.673 794.398 808.701 794.458 808.721 794.525L1280.93 2254.72C1280.95 2254.78 1280.96 2254.85 1280.96 2254.93C1280.97 2255 1280.96 2255.07 1280.95 2255.14C1280.93 2255.21 1280.91 2255.27 1280.88 2255.33C1280.85 2255.38 1280.81 2255.43 1280.77 2255.46C1280.72 2255.5 1280.66 2255.52 1280.61 2255.52Z" fill="white"/>
<path d="M-405.632 1387.69C-405.699 1387.69 -405.764 1387.66 -405.82 1387.61C-405.876 1387.55 -405.921 1387.48 -405.95 1387.39C-405.993 1387.26 -406 1387.1 -405.971 1386.97C-405.941 1386.83 -405.877 1386.71 -405.793 1386.65L362.793 794.282C362.878 794.217 362.976 794.207 363.066 794.254C363.156 794.3 363.23 794.4 363.272 794.53C363.314 794.661 363.321 794.812 363.291 794.951C363.261 795.089 363.196 795.203 363.111 795.268L-405.471 1387.63C-405.521 1387.67 -405.576 1387.69 -405.632 1387.69V1387.69Z" fill="white"/>
<path d="M-405.632 1677.59C-405.691 1677.59 -405.748 1677.57 -405.8 1677.53C-405.852 1677.48 -405.896 1677.42 -405.929 1677.35C-405.955 1677.29 -405.974 1677.22 -405.983 1677.15C-405.992 1677.08 -405.993 1677 -405.984 1676.93C-405.975 1676.86 -405.957 1676.79 -405.931 1676.73C-405.905 1676.67 -405.871 1676.62 -405.832 1676.58L452.037 794.315C452.076 794.275 452.119 794.246 452.165 794.232C452.211 794.217 452.259 794.217 452.305 794.231C452.351 794.245 452.395 794.272 452.434 794.312C452.473 794.352 452.507 794.404 452.533 794.464C452.56 794.524 452.578 794.592 452.587 794.663C452.596 794.735 452.596 794.808 452.587 794.879C452.577 794.95 452.559 795.018 452.533 795.078C452.506 795.138 452.473 795.19 452.433 795.23L-405.432 1677.5C-405.491 1677.56 -405.561 1677.59 -405.632 1677.59V1677.59Z" fill="white"/>
<path d="M-405.579 2255.6C-405.672 2255.6 -405.762 2255.54 -405.829 2255.44C-405.895 2255.34 -405.933 2255.2 -405.933 2255.05C-405.933 2254.91 -405.895 2254.77 -405.829 2254.66L541.023 794.382C541.09 794.278 541.181 794.219 541.276 794.219C541.372 794.219 541.463 794.278 541.53 794.382C541.598 794.485 541.635 794.626 541.635 794.773C541.635 794.919 541.598 795.06 541.53 795.164L-405.325 2255.44C-405.358 2255.49 -405.398 2255.53 -405.441 2255.56C-405.485 2255.59 -405.532 2255.6 -405.579 2255.6Z" fill="white"/>
<path d="M-405.632 955.133C-405.714 955.136 -405.794 955.097 -405.859 955.02C-405.924 954.944 -405.97 954.836 -405.99 954.714C-406.012 954.572 -405.998 954.422 -405.949 954.297C-405.9 954.173 -405.821 954.082 -405.729 954.047L362.854 657.212C362.9 657.194 362.947 657.19 362.994 657.2C363.041 657.211 363.086 657.235 363.126 657.273C363.167 657.31 363.202 657.36 363.23 657.418C363.258 657.477 363.279 657.543 363.29 657.614C363.313 657.756 363.298 657.906 363.249 658.031C363.2 658.156 363.121 658.245 363.029 658.28L-405.546 955.133C-405.575 955.138 -405.604 955.138 -405.632 955.133V955.133Z" fill="white"/>
<path d="M1845.65 1387.62C1845.6 1387.62 1845.54 1387.61 1845.49 1387.57L1076.4 795.263C1076.31 795.198 1076.25 795.083 1076.22 794.945C1076.19 794.807 1076.2 794.655 1076.24 794.525C1076.26 794.459 1076.29 794.401 1076.32 794.353C1076.36 794.305 1076.4 794.268 1076.45 794.245C1076.49 794.222 1076.54 794.213 1076.58 794.219C1076.63 794.224 1076.68 794.244 1076.72 794.277L1845.81 1386.58C1845.9 1386.65 1845.96 1386.76 1845.99 1386.9C1846.02 1387.04 1846.01 1387.19 1845.97 1387.32C1845.94 1387.41 1845.9 1387.49 1845.84 1387.54C1845.78 1387.59 1845.72 1387.62 1845.65 1387.62Z" fill="white"/>
<path d="M1845.65 1679.91C1845.58 1679.91 1845.51 1679.88 1845.45 1679.82L986.318 795.23C986.276 795.192 986.24 795.141 986.212 795.08C986.183 795.02 986.163 794.951 986.152 794.878C986.141 794.805 986.14 794.729 986.149 794.655C986.158 794.582 986.176 794.511 986.203 794.449C986.23 794.387 986.265 794.334 986.306 794.293C986.347 794.252 986.392 794.225 986.44 794.212C986.488 794.2 986.537 794.202 986.585 794.22C986.632 794.238 986.676 794.27 986.715 794.315L1845.85 1678.91C1845.92 1678.97 1845.97 1679.07 1845.99 1679.18C1846.02 1679.29 1846.02 1679.41 1846 1679.52C1845.97 1679.64 1845.93 1679.74 1845.87 1679.81C1845.8 1679.88 1845.73 1679.91 1845.65 1679.91V1679.91Z" fill="white"/>
<path d="M1845.65 955.497C1845.62 955.502 1845.6 955.502 1845.57 955.497L1076.48 658.22C1076.39 658.181 1076.32 658.09 1076.27 657.966C1076.22 657.843 1076.21 657.697 1076.23 657.559C1076.25 657.421 1076.31 657.301 1076.39 657.225C1076.47 657.149 1076.56 657.123 1076.65 657.152L1845.74 954.422C1845.83 954.458 1845.91 954.548 1845.96 954.673C1846.01 954.797 1846.02 954.947 1846 955.089C1845.98 955.206 1845.93 955.31 1845.87 955.384C1845.81 955.457 1845.73 955.497 1845.65 955.497Z" fill="white"/>
<path d="M1842.65 2255.52C1842.6 2255.52 1842.56 2255.5 1842.51 2255.48C1842.47 2255.45 1842.43 2255.41 1842.4 2255.36L897.214 795.158C897.156 795.052 897.125 794.917 897.128 794.778C897.132 794.639 897.169 794.508 897.233 794.41C897.297 794.312 897.382 794.254 897.472 794.249C897.562 794.244 897.65 794.291 897.718 794.381L1842.9 2254.57C1842.95 2254.65 1842.99 2254.75 1843 2254.86C1843.02 2254.96 1843.01 2255.08 1842.98 2255.18C1842.95 2255.28 1842.91 2255.36 1842.85 2255.42C1842.79 2255.49 1842.72 2255.52 1842.65 2255.52V2255.52Z" fill="white"/>
<path d="M-405.632 521.519C-405.727 521.519 -405.818 521.461 -405.885 521.358C-405.952 521.254 -405.99 521.114 -405.99 520.968C-405.99 520.822 -405.952 520.682 -405.885 520.579C-405.818 520.475 -405.727 520.417 -405.632 520.417L362.954 519.657C363.049 519.657 363.14 519.715 363.207 519.819C363.274 519.922 363.311 520.062 363.311 520.208C363.311 520.354 363.274 520.494 363.207 520.598C363.14 520.701 363.049 520.759 362.954 520.759L-405.632 521.519Z" fill="white"/>
<path d="M362.954 383.21H362.864L-405.718 87.8726C-405.81 87.8375 -405.889 87.7474 -405.938 87.6225C-405.987 87.4975 -406.002 87.3478 -405.979 87.2061C-405.956 87.0644 -405.898 86.9423 -405.817 86.8669C-405.736 86.7915 -405.638 86.769 -405.546 86.804L363.04 382.125C363.086 382.133 363.132 382.156 363.173 382.192C363.214 382.227 363.25 382.275 363.28 382.333C363.309 382.39 363.33 382.455 363.343 382.526C363.356 382.596 363.36 382.669 363.354 382.742C363.348 382.814 363.334 382.884 363.31 382.947C363.287 383.011 363.256 383.067 363.219 383.112C363.182 383.157 363.139 383.19 363.094 383.21C363.048 383.229 363.001 383.235 362.954 383.226V383.21Z" fill="white"/>
<path d="M362.954 244.917C362.898 244.918 362.843 244.899 362.793 244.861L-405.793 -347.526C-405.877 -347.592 -405.941 -347.707 -405.971 -347.845C-406 -347.983 -405.993 -348.134 -405.95 -348.264C-405.908 -348.395 -405.834 -348.494 -405.744 -348.541C-405.654 -348.587 -405.556 -348.577 -405.471 -348.512L363.111 243.875C363.182 243.931 363.239 244.022 363.273 244.134C363.306 244.245 363.314 244.371 363.296 244.491C363.278 244.61 363.235 244.717 363.173 244.794C363.111 244.872 363.034 244.915 362.954 244.917Z" fill="white"/>
<path d="M451.436 244.917C451.366 244.918 451.298 244.887 451.24 244.829L-405.829 -634.342C-405.907 -634.422 -405.962 -634.548 -405.98 -634.69C-405.999 -634.832 -405.981 -634.98 -405.929 -635.102C-405.876 -635.223 -405.795 -635.306 -405.703 -635.335C-405.61 -635.364 -405.514 -635.336 -405.436 -635.256L451.636 243.915C451.7 243.98 451.748 244.076 451.774 244.188C451.799 244.299 451.801 244.42 451.779 244.533C451.756 244.646 451.711 244.745 451.649 244.815C451.588 244.885 451.513 244.923 451.436 244.923V244.917Z" fill="white"/>
<path d="M809.318 244.916C809.264 244.917 809.21 244.898 809.161 244.861C809.076 244.796 809.012 244.682 808.982 244.544C808.951 244.405 808.958 244.254 809 244.123L1282.35 -1216.09C1282.37 -1216.16 1282.4 -1216.23 1282.43 -1216.28C1282.47 -1216.33 1282.51 -1216.37 1282.56 -1216.4C1282.6 -1216.42 1282.65 -1216.43 1282.7 -1216.43C1282.75 -1216.43 1282.8 -1216.41 1282.84 -1216.37C1282.89 -1216.34 1282.93 -1216.29 1282.96 -1216.23C1282.99 -1216.17 1283.01 -1216.11 1283.03 -1216.03C1283.04 -1215.96 1283.04 -1215.88 1283.04 -1215.81C1283.03 -1215.73 1283.01 -1215.66 1282.99 -1215.6L809.64 244.614C809.61 244.705 809.564 244.782 809.507 244.836C809.45 244.889 809.385 244.917 809.318 244.916V244.916Z" fill="white"/>
<path d="M540.923 244.917C540.829 244.916 540.739 244.859 540.672 244.757L-405.882 -1211.26C-405.916 -1211.31 -405.943 -1211.37 -405.961 -1211.44C-405.979 -1211.51 -405.988 -1211.58 -405.988 -1211.65C-405.988 -1211.72 -405.979 -1211.8 -405.961 -1211.86C-405.943 -1211.93 -405.916 -1211.99 -405.882 -1212.04C-405.849 -1212.09 -405.81 -1212.14 -405.766 -1212.16C-405.723 -1212.19 -405.676 -1212.21 -405.629 -1212.21C-405.581 -1212.21 -405.535 -1212.19 -405.491 -1212.16C-405.448 -1212.14 -405.408 -1212.09 -405.375 -1212.04L541.169 243.975C541.236 244.078 541.273 244.218 541.273 244.363C541.273 244.509 541.236 244.648 541.169 244.751C541.104 244.854 541.016 244.913 540.923 244.917V244.917Z" fill="white"/>
<path d="M630.384 244.916C630.318 244.916 630.254 244.888 630.198 244.834C630.141 244.781 630.096 244.704 630.066 244.614L155.001 -1215.6C154.959 -1215.73 154.951 -1215.88 154.981 -1216.02C155.011 -1216.16 155.075 -1216.27 155.16 -1216.34C155.245 -1216.4 155.344 -1216.41 155.434 -1216.37C155.524 -1216.32 155.598 -1216.22 155.641 -1216.09L630.706 244.123C630.749 244.253 630.756 244.404 630.726 244.542C630.697 244.681 630.633 244.795 630.549 244.861C630.498 244.9 630.441 244.919 630.384 244.916V244.916Z" fill="white"/>
<path d="M720.01 244.917C719.916 244.917 719.825 244.858 719.758 244.755C719.691 244.652 719.653 244.512 719.653 244.366V-1215.84C719.653 -1215.99 719.691 -1216.13 719.758 -1216.23C719.825 -1216.34 719.916 -1216.39 720.01 -1216.39C720.105 -1216.39 720.196 -1216.34 720.263 -1216.23C720.33 -1216.13 720.368 -1215.99 720.368 -1215.84V244.366C720.368 244.512 720.33 244.652 720.263 244.755C720.196 244.858 720.105 244.917 720.01 244.917Z" fill="white"/>
<path d="M988.256 244.917C988.197 244.917 988.139 244.895 988.088 244.853C988.036 244.811 987.992 244.749 987.959 244.675C987.933 244.614 987.915 244.546 987.905 244.475C987.896 244.404 987.896 244.331 987.906 244.26C987.915 244.188 987.933 244.121 987.96 244.061C987.986 244.001 988.02 243.949 988.059 243.909L1845.46 -636.661C1845.54 -636.738 1845.63 -636.764 1845.72 -636.734C1845.81 -636.704 1845.89 -636.619 1845.95 -636.499C1846 -636.378 1846.02 -636.231 1846 -636.089C1845.98 -635.947 1845.93 -635.822 1845.85 -635.741L988.463 244.829C988.401 244.89 988.329 244.921 988.256 244.917Z" fill="white"/>
<path d="M898.787 244.916C898.717 244.916 898.648 244.884 898.59 244.823C898.531 244.763 898.486 244.678 898.459 244.578C898.431 244.478 898.424 244.368 898.437 244.262C898.451 244.155 898.484 244.057 898.533 243.98L1845.4 -1215.16C1845.43 -1215.21 1845.47 -1215.25 1845.52 -1215.28C1845.56 -1215.3 1845.61 -1215.32 1845.65 -1215.32C1845.7 -1215.32 1845.75 -1215.3 1845.79 -1215.28C1845.83 -1215.25 1845.87 -1215.21 1845.91 -1215.16C1845.97 -1215.05 1846.01 -1214.91 1846.01 -1214.77C1846.01 -1214.62 1845.97 -1214.48 1845.91 -1214.38L899.041 244.757C899.007 244.808 898.968 244.848 898.924 244.876C898.881 244.903 898.834 244.917 898.787 244.916V244.916Z" fill="white"/>
<path d="M1076.57 245.308C1076.48 245.309 1076.41 245.269 1076.34 245.191C1076.28 245.114 1076.23 245.006 1076.21 244.884C1076.19 244.762 1076.2 244.634 1076.24 244.52C1076.27 244.407 1076.33 244.316 1076.41 244.261L1845.49 -348.512C1845.58 -348.577 1845.68 -348.587 1845.77 -348.541C1845.85 -348.494 1845.93 -348.395 1845.97 -348.264C1846.01 -348.134 1846.02 -347.983 1845.99 -347.845C1845.96 -347.707 1845.9 -347.592 1845.81 -347.526L1076.73 245.247C1076.68 245.285 1076.62 245.306 1076.57 245.308V245.308Z" fill="white"/>
<path d="M1076.57 383.276C1076.48 383.28 1076.4 383.24 1076.34 383.164C1076.27 383.088 1076.23 382.98 1076.21 382.857C1076.19 382.716 1076.2 382.566 1076.25 382.441C1076.3 382.316 1076.38 382.226 1076.47 382.191L1845.56 86.3799C1845.65 86.351 1845.74 86.3774 1845.82 86.4533C1845.9 86.5292 1845.95 86.6486 1845.98 86.7868C1846 86.9251 1845.98 87.0713 1845.94 87.1946C1845.89 87.3179 1845.82 87.409 1845.73 87.4485L1076.64 383.26C1076.62 383.269 1076.59 383.275 1076.57 383.276Z" fill="white"/>
<path d="M1845.65 521.486L1076.57 520.743C1076.47 520.743 1076.38 520.685 1076.31 520.581C1076.25 520.478 1076.21 520.338 1076.21 520.192C1076.21 520.046 1076.25 519.906 1076.31 519.802C1076.38 519.699 1076.47 519.641 1076.57 519.641L1845.65 520.384C1845.75 520.384 1845.84 520.443 1845.91 520.546C1845.97 520.649 1846.01 520.789 1846.01 520.935C1846.01 521.081 1845.97 521.222 1845.91 521.325C1845.84 521.428 1845.75 521.486 1845.65 521.486Z" fill="white"/>
<path d="M1729.01 1297.8H-288.996C-289.091 1297.8 -289.182 1297.74 -289.249 1297.64C-289.316 1297.54 -289.354 1297.4 -289.354 1297.25V-258.111C-289.354 -258.257 -289.316 -258.397 -289.249 -258.5C-289.182 -258.603 -289.091 -258.661 -288.996 -258.661H1729.01C1729.1 -258.661 1729.19 -258.603 1729.26 -258.5C1729.33 -258.397 1729.36 -258.257 1729.36 -258.111V1297.25C1729.36 1297.4 1729.33 1297.54 1729.26 1297.64C1729.19 1297.74 1729.1 1297.8 1729.01 1297.8ZM-288.639 1296.7H1728.65V-257.56H-288.639V1296.7Z" fill="white"/>
<path d="M1632.56 1223.51H-192.614C-192.709 1223.51 -192.8 1223.45 -192.867 1223.35C-192.934 1223.25 -192.972 1223.11 -192.972 1222.96V-183.838C-192.972 -183.985 -192.934 -184.125 -192.867 -184.228C-192.8 -184.331 -192.709 -184.389 -192.614 -184.389H1632.58C1632.67 -184.389 1632.76 -184.331 1632.83 -184.228C1632.9 -184.125 1632.94 -183.985 1632.94 -183.838V1222.96C1632.94 1223.04 1632.93 1223.11 1632.91 1223.18C1632.89 1223.25 1632.86 1223.31 1632.82 1223.36C1632.79 1223.41 1632.75 1223.45 1632.7 1223.48C1632.66 1223.5 1632.61 1223.52 1632.56 1223.51ZM-192.257 1222.41H1632.22V-183.288H-192.257V1222.41Z" fill="white"/>
<path d="M1551.61 1161.15H-111.732C-111.827 1161.15 -111.918 1161.1 -111.985 1160.99C-112.052 1160.89 -112.089 1160.75 -112.089 1160.6V-121.487C-112.089 -121.633 -112.052 -121.773 -111.985 -121.876C-111.918 -121.98 -111.827 -122.038 -111.732 -122.038H1551.61C1551.7 -122.038 1551.8 -121.98 1551.86 -121.876C1551.93 -121.773 1551.97 -121.633 1551.97 -121.487V1160.6C1551.97 1160.75 1551.93 1160.89 1551.86 1160.99C1551.8 1161.1 1551.7 1161.15 1551.61 1161.15ZM-111.374 1160.05H1551.25V-120.936H-111.374V1160.05Z" fill="white"/>
<path d="M1483.84 1108.99H-44.0146C-44.1094 1108.99 -44.2003 1108.93 -44.2674 1108.83C-44.3344 1108.72 -44.3721 1108.58 -44.3721 1108.44V-69.2984C-44.3721 -69.4445 -44.3344 -69.5846 -44.2674 -69.6879C-44.2003 -69.7912 -44.1094 -69.8493 -44.0146 -69.8493H1483.84C1483.93 -69.8493 1484.02 -69.7912 1484.09 -69.6879C1484.16 -69.5846 1484.2 -69.4445 1484.2 -69.2984V1108.44C1484.2 1108.58 1484.16 1108.72 1484.09 1108.83C1484.02 1108.93 1483.93 1108.99 1483.84 1108.99ZM-43.6571 1107.89H1483.48V-68.7476H-43.6571V1107.89Z" fill="white"/>
<path d="M1426.28 1064.65H13.5115C13.4167 1064.65 13.3258 1064.59 13.2587 1064.49C13.1917 1064.38 13.1541 1064.24 13.1541 1064.1V-24.9487C13.1541 -25.0948 13.1917 -25.2349 13.2587 -25.3382C13.3258 -25.4415 13.4167 -25.4996 13.5115 -25.4996H1426.28C1426.38 -25.4996 1426.47 -25.4415 1426.53 -25.3382C1426.6 -25.2349 1426.64 -25.0948 1426.64 -24.9487V1064.1C1426.64 1064.24 1426.6 1064.38 1426.53 1064.49C1426.47 1064.59 1426.38 1064.65 1426.28 1064.65ZM13.869 1063.55H1425.92V-24.3979H13.869V1063.55Z" fill="white"/>
<path d="M1376.78 1026.52H62.9696C62.8748 1026.52 62.7839 1026.46 62.7169 1026.36C62.6498 1026.25 62.6122 1026.11 62.6122 1025.97V13.1648C62.6122 13.0187 62.6498 12.8786 62.7169 12.7753C62.7839 12.672 62.8748 12.614 62.9696 12.614H1376.78C1376.87 12.614 1376.97 12.672 1377.03 12.7753C1377.1 12.8786 1377.14 13.0187 1377.14 13.1648V1025.97C1377.14 1026.11 1377.1 1026.25 1377.03 1026.36C1376.97 1026.46 1376.87 1026.52 1376.78 1026.52ZM63.3271 1025.42H1376.42V13.7157H63.3271V1025.42Z" fill="white"/>
<path d="M1333.77 993.39H105.961C105.867 993.39 105.776 993.332 105.709 993.229C105.642 993.125 105.604 992.985 105.604 992.839V46.2992C105.604 46.1531 105.642 46.013 105.709 45.9097C105.776 45.8064 105.867 45.7484 105.961 45.7484H1333.77C1333.86 45.7484 1333.96 45.8064 1334.02 45.9097C1334.09 46.013 1334.13 46.1531 1334.13 46.2992V992.839C1334.13 992.985 1334.09 993.125 1334.02 993.229C1333.96 993.332 1333.86 993.39 1333.77 993.39ZM106.333 992.288H1333.41V46.8501H106.319L106.333 992.288Z" fill="white"/>
<path d="M1296.01 964.321H143.677C143.582 964.321 143.491 964.263 143.424 964.16C143.357 964.057 143.32 963.917 143.32 963.77V75.3571C143.32 75.211 143.357 75.0709 143.424 74.9676C143.491 74.8643 143.582 74.8062 143.677 74.8062H1296.01C1296.11 74.8062 1296.2 74.8643 1296.27 74.9676C1296.33 75.0709 1296.37 75.211 1296.37 75.3571V963.77C1296.37 963.917 1296.33 964.057 1296.27 964.16C1296.2 964.263 1296.11 964.321 1296.01 964.321ZM144.035 963.22H1295.66V75.9079H144.035V963.22Z" fill="white"/>
<path d="M1262.63 938.607H177.028C176.933 938.607 176.842 938.549 176.775 938.446C176.708 938.342 176.67 938.202 176.67 938.056V101.06C176.67 100.914 176.708 100.774 176.775 100.671C176.842 100.568 176.933 100.51 177.028 100.51H1262.63C1262.73 100.51 1262.82 100.568 1262.89 100.671C1262.95 100.774 1262.99 100.914 1262.99 101.06V938.056C1262.99 938.202 1262.95 938.342 1262.89 938.446C1262.82 938.549 1262.73 938.607 1262.63 938.607ZM177.385 937.505H1262.28V101.611H177.385V937.505Z" fill="white"/>
<path d="M1232.92 915.736H206.719C206.624 915.736 206.533 915.677 206.466 915.574C206.399 915.471 206.361 915.331 206.361 915.185V123.954C206.361 123.808 206.399 123.667 206.466 123.564C206.533 123.461 206.624 123.403 206.719 123.403H1232.92C1233.01 123.403 1233.11 123.461 1233.17 123.564C1233.24 123.667 1233.28 123.808 1233.28 123.954V915.185C1233.28 915.331 1233.24 915.471 1233.17 915.574C1233.11 915.677 1233.01 915.736 1232.92 915.736ZM207.076 914.634H1232.56V124.504H207.076V914.634Z" fill="white"/>
<path d="M1206.27 895.216H233.342C233.248 895.216 233.157 895.158 233.09 895.054C233.023 894.951 232.985 894.811 232.985 894.665V144.473C232.985 144.327 233.023 144.187 233.09 144.084C233.157 143.98 233.248 143.922 233.342 143.922H1206.27C1206.37 143.922 1206.46 143.98 1206.53 144.084C1206.59 144.187 1206.63 144.327 1206.63 144.473V894.665C1206.63 894.811 1206.59 894.951 1206.53 895.054C1206.46 895.158 1206.37 895.216 1206.27 895.216ZM233.7 894.114H1205.92V145.024H233.7V894.114Z" fill="white"/>
<path d="M1182.26 876.713H257.335C257.24 876.713 257.15 876.655 257.082 876.552C257.015 876.448 256.978 876.308 256.978 876.162V162.96C256.978 162.814 257.015 162.674 257.082 162.57C257.15 162.467 257.24 162.409 257.335 162.409H1182.26C1182.35 162.409 1182.45 162.467 1182.51 162.57C1182.58 162.674 1182.62 162.814 1182.62 162.96V876.162C1182.62 876.308 1182.58 876.448 1182.51 876.552C1182.45 876.655 1182.35 876.713 1182.26 876.713ZM257.693 875.611H1181.9V163.511H257.693V875.611Z" fill="white"/>
<path d="M1160.51 859.966H279.076C278.981 859.966 278.89 859.908 278.823 859.805C278.756 859.702 278.718 859.562 278.718 859.416V179.728C278.718 179.582 278.756 179.442 278.823 179.339C278.89 179.235 278.981 179.177 279.076 179.177H1160.51C1160.6 179.177 1160.69 179.235 1160.76 179.339C1160.83 179.442 1160.87 179.582 1160.87 179.728V859.416C1160.87 859.562 1160.83 859.702 1160.76 859.805C1160.69 859.908 1160.6 859.966 1160.51 859.966ZM279.433 858.865H1160.15V180.279H279.433V858.865Z" fill="white"/>
<path d="M1076.57 795.324H362.954C362.859 795.324 362.768 795.266 362.701 795.162C362.634 795.059 362.596 794.919 362.596 794.773V244.366C362.596 244.22 362.634 244.08 362.701 243.977C362.768 243.873 362.859 243.815 362.954 243.815H1076.57C1076.66 243.815 1076.75 243.873 1076.82 243.977C1076.89 244.08 1076.92 244.22 1076.92 244.366V794.773C1076.92 794.919 1076.89 795.059 1076.82 795.162C1076.75 795.266 1076.66 795.324 1076.57 795.324ZM363.311 794.222H1076.21V244.917H363.311V794.222Z" fill="white"/>
<path d="M1090.7 806.197H348.834C348.739 806.197 348.648 806.139 348.581 806.036C348.514 805.932 348.477 805.792 348.477 805.646V233.509C348.477 233.362 348.514 233.222 348.581 233.119C348.648 233.016 348.739 232.958 348.834 232.958H1090.7C1090.79 232.958 1090.88 233.016 1090.95 233.119C1091.02 233.222 1091.05 233.362 1091.05 233.509V805.646C1091.05 805.792 1091.02 805.932 1090.95 806.036C1090.88 806.139 1090.79 806.197 1090.7 806.197ZM349.192 805.095H1090.34V234.059H349.192V805.095Z" fill="white"/>
<path d="M1106 817.969H333.546C333.451 817.969 333.36 817.911 333.293 817.808C333.226 817.704 333.188 817.564 333.188 817.418V221.709C333.188 221.563 333.226 221.423 333.293 221.32C333.36 221.216 333.451 221.158 333.546 221.158H1106C1106.09 221.158 1106.18 221.216 1106.25 221.32C1106.32 221.423 1106.35 221.563 1106.35 221.709V817.418C1106.35 817.564 1106.32 817.704 1106.25 817.808C1106.18 817.911 1106.09 817.969 1106 817.969ZM333.903 816.867H1105.64V222.26H333.903V816.867Z" fill="white"/>
<path d="M1122.6 830.776H316.945C316.85 830.776 316.759 830.718 316.692 830.615C316.625 830.512 316.588 830.372 316.588 830.225V208.918C316.588 208.772 316.625 208.632 316.692 208.529C316.759 208.425 316.85 208.367 316.945 208.367H1122.6C1122.7 208.367 1122.79 208.425 1122.86 208.529C1122.92 208.632 1122.96 208.772 1122.96 208.918V830.225C1122.96 830.372 1122.92 830.512 1122.86 830.615C1122.79 830.718 1122.7 830.776 1122.6 830.776ZM317.303 829.675H1122.25V209.469H317.303V829.675Z" fill="white"/>
<path d="M1140.71 844.713H298.861C298.766 844.713 298.676 844.655 298.609 844.552C298.541 844.449 298.504 844.308 298.504 844.162V194.976C298.504 194.83 298.541 194.69 298.609 194.586C298.676 194.483 298.766 194.425 298.861 194.425H1140.71C1140.8 194.425 1140.89 194.483 1140.96 194.586C1141.03 194.69 1141.07 194.83 1141.07 194.976V844.162C1141.07 844.308 1141.03 844.449 1140.96 844.552C1140.89 844.655 1140.8 844.713 1140.71 844.713ZM299.219 843.611H1140.35V195.527H299.219V843.611Z" fill="white"/>
</g>
</g>
<defs>
<clipPath id="clip0_111_334">
<rect width="1440" height="1045" fill="white"/>
</clipPath>
<clipPath id="clip1_111_334">
<rect width="2252" height="3472" fill="white" transform="translate(-406 -1174)"/>
</clipPath>
</defs>
</svg>
