<svg width="30" height="540" viewBox="0 0 30 540" fill="none" xmlns="http://www.w3.org/2000/svg">
<path d="M27.5712 102L27.5712 113.554C27.5712 115.841 27.2624 117.68 26.6448 119.07C26.0615 120.43 25.151 121.625 23.9943 122.548C22.8018 123.482 21.4293 124.159 19.9628 124.538C18.3674 124.958 16.7234 125.166 15.0735 125.155C12.3859 125.155 10.3015 124.849 8.82045 124.238C7.40664 123.671 6.13437 122.802 5.09346 121.69C4.15035 120.703 3.46405 119.5 3.09487 118.186C2.66485 116.679 2.43415 115.121 2.40866 113.554L2.40866 102L27.5712 102ZM21.8499 109.776L8.12566 109.776L8.12566 111.68C8.12566 113.307 8.30721 114.463 8.67034 115.15C9.09221 115.891 9.75968 116.461 10.5574 116.762C11.4538 117.152 12.912 117.345 14.9234 117.345C17.5911 117.345 19.4167 116.917 20.4003 116.059C21.3838 115.201 21.867 113.753 21.8499 111.714L21.8499 109.776Z" fill="black"/>
<path d="M27.5712 127.729L27.5712 135.522L2.40866 135.522L2.40866 127.729L27.5712 127.729Z" fill="black"/>
<path d="M11.5224 151.694L16.759 151.694L16.759 163.703L6.03695 163.703C4.69101 161.828 3.61409 159.774 2.83749 157.6C2.22992 155.559 1.9406 153.437 1.97973 151.308C1.97973 148.323 2.48867 145.893 3.50655 144.017C4.53424 142.125 6.12223 140.597 8.0527 139.643C10.2066 138.578 12.5855 138.048 14.9877 138.099C17.4846 138.043 19.9535 138.634 22.1543 139.814C24.1825 140.944 25.802 142.685 26.782 144.789C27.594 146.505 28 148.792 28 151.651C28 154.435 27.747 156.511 27.2452 157.892C26.7741 159.218 25.9673 160.401 24.9035 161.323C23.7282 162.295 22.3532 162.996 20.8763 163.377L19.5382 155.876C20.4215 155.615 21.1899 155.062 21.7169 154.306C22.2503 153.463 22.5136 152.477 22.4717 151.48C22.5031 150.711 22.3596 149.944 22.052 149.239C21.7445 148.533 21.2809 147.906 20.6961 147.405C19.5124 146.393 17.6382 145.886 15.0735 145.883C12.3487 145.883 10.4044 146.396 9.2407 147.423C8.077 148.449 7.49229 149.879 7.48657 151.711C7.48401 152.555 7.61131 153.394 7.86399 154.199C8.18967 155.149 8.62127 156.06 9.15063 156.914L11.5224 156.914L11.5224 151.694Z" fill="black"/>
<path d="M27.5712 166.276L27.5712 174.069L2.40866 174.069L2.40866 166.276L27.5712 166.276Z" fill="black"/>
<path d="M27.5712 176.642L27.5712 200.274L21.3567 200.274L21.3567 192.344L2.40866 192.344L2.40866 184.568L21.3567 184.568L21.3567 176.642L27.5712 176.642Z" fill="black"/>
<path d="M6.56024 220.839L6.56024 212.017L2.40866 210.79L2.40866 202.847L27.5712 212.308L27.5712 220.787L2.40866 230.244L2.40866 222.095L6.56024 220.839ZM11.9856 219.23L21.0307 216.451L11.9856 213.702L11.9856 219.23Z" fill="black"/>
<path d="M27.5712 232.817L27.5712 240.584L8.60601 240.584L8.60601 252.718L2.40866 252.718L2.40866 232.817L27.5712 232.817Z" fill="black"/>
<path d="M27.5712 272.266L27.5712 282.491L12.2601 286.436L27.5712 290.352L27.5712 300.572L2.40866 300.572L2.40866 294.203L21.6183 294.203L2.4301 289.293L2.4301 283.533L21.6183 278.635L2.4301 278.635L2.4301 272.266L27.5712 272.266Z" fill="black"/>
<path d="M6.56023 323.711L6.56023 314.884L2.40866 313.658L2.40866 305.719L27.5712 315.154L27.5712 323.655L2.40866 333.112L2.40866 324.963L6.56023 323.711ZM12.0027 322.098L21.0479 319.319L12.0027 316.574L12.0027 322.098Z" fill="black"/>
<path d="M2.4301 338.258L27.5712 338.258L27.5712 351.219C27.5712 353.621 27.3653 355.456 26.9536 356.726C26.5559 357.98 25.7476 359.063 24.6591 359.801C23.4553 360.604 22.0311 361.012 20.5847 360.968C19.3628 361.015 18.1512 360.728 17.0803 360.138C16.0094 359.548 15.1198 358.676 14.5074 357.618C14.0366 356.764 13.7009 355.843 13.5124 354.886C13.2189 356.228 12.4104 357.402 11.2608 358.154C10.7767 358.567 10.2539 358.931 9.69965 359.243L2.40866 363.009L2.40866 354.226L10.0985 350.07C10.8344 349.737 11.4942 349.257 12.0371 348.659C12.4243 348.1 12.6282 347.434 12.6203 346.754L12.6203 346.068L2.40866 346.068L2.4301 338.258ZM17.3938 346.068L17.3938 349.345C17.4474 350.042 17.5636 350.732 17.7412 351.408C17.8371 351.912 18.1187 352.362 18.5303 352.669C19.0262 353.03 19.6358 353.201 20.2473 353.149C20.8587 353.097 21.4308 352.826 21.8585 352.386C22.2902 351.871 22.5075 350.903 22.5104 349.482L22.5104 346.051L17.3938 346.068Z" fill="black"/>
<path d="M27.5712 368.156L27.5712 375.931L18.0629 375.931L27.5712 384.08L27.5712 394.42L18.0929 385.251L2.4301 394.845L2.43011 385.272L12.779 379.967L8.56741 375.948L2.43011 375.948L2.43011 368.156L27.5712 368.156Z" fill="black"/>
<path d="M27.5712 399.991L27.5712 420.839L22.1973 420.839L22.1973 407.784L18.2001 407.784L18.2001 419.887L13.0535 419.887L13.0535 407.784L8.09135 407.784L8.09135 421.208L2.39579 421.208L2.39579 399.991L27.5712 399.991Z" fill="black"/>
<path d="M27.5712 426.355L27.5712 449.99L21.3567 449.99L21.3567 442.06L2.40866 442.06L2.40866 434.285L21.3781 434.285L21.3781 426.355L27.5712 426.355Z" fill="black"/>
<path d="M27.5712 455.137L27.5712 462.93L2.40866 462.93L2.40866 455.137L27.5712 455.137Z" fill="black"/>
<path d="M27.5712 468.076L27.5712 475.337L13.6497 484.811L27.5712 484.811L27.5712 492.141L2.40866 492.141L2.40866 484.811L16.2229 475.376L2.40866 475.376L2.40866 468.076L27.5712 468.076Z" fill="black"/>
<path d="M11.5266 510.9L16.759 510.9L16.759 522.908L6.03696 522.908C4.69102 521.033 3.61409 518.979 2.83749 516.805C2.22992 514.765 1.9406 512.643 1.97973 510.514C1.97973 507.529 2.48867 505.098 3.50655 503.223C4.53424 501.33 6.12223 499.802 8.0527 498.848C10.2054 497.779 12.5845 497.245 14.9877 497.291C17.4846 497.235 19.9535 497.826 22.1543 499.007C24.1825 500.136 25.802 501.877 26.782 503.982C27.5911 505.697 27.9971 507.985 28 510.844C28 513.623 27.7484 515.703 27.2452 517.084C26.7729 518.411 25.9646 519.594 24.8992 520.515C23.7261 521.488 22.3523 522.19 20.8763 522.57L19.5425 515.073C20.4269 514.812 21.1956 514.256 21.7212 513.499C22.2532 512.656 22.5165 511.672 22.476 510.677C22.5074 509.908 22.3639 509.141 22.0563 508.436C21.7488 507.73 21.2852 507.103 20.7004 506.602C19.5167 505.584 17.6425 505.077 15.0778 505.08C12.353 505.08 10.4087 505.593 9.24499 506.62C8.08129 507.646 7.49658 509.076 7.49087 510.908C7.4883 511.752 7.6156 512.591 7.86828 513.396C8.19396 514.346 8.62556 515.257 9.15493 516.111L11.5224 516.111L11.5266 510.9Z" fill="black"/>
<path d="M2.54932 8.32812C2.54932 5.72976 2.54932 5.06904 2.43054 4C3.64478 4.06328 4.84782 4.26503 6.01627 4.60133C8.60486 5.37953 10.9494 6.8113 12.824 8.7587C14.3078 10.3576 15.6609 12.073 16.87 13.8886C18.6369 16.3756 19.4238 16.9769 20.8195 16.9769C22.2152 16.9769 23.2545 15.7371 23.2545 13.8886C23.299 13.3056 23.1845 12.7214 22.923 12.1984C22.6615 11.6754 22.2629 11.2332 21.7697 10.919C20.9888 10.474 20.1138 10.2196 19.2159 10.1767L19.8841 4.11877C22.5344 4.55678 23.8707 5.07646 25.2961 6.22716C27.3376 7.86784 28.429 10.4959 28.429 13.8738C28.429 17.7639 27.063 20.7334 24.5982 22.1736C23.5241 22.8153 22.2933 23.1468 21.0422 23.1313C19.9601 23.1423 18.8894 22.9091 17.91 22.4489C16.9305 21.9888 16.0675 21.3136 15.3852 20.4736C14.2076 19.1558 13.1212 17.7594 12.1335 16.2939C10.3073 13.7847 9.24566 12.7156 7.90936 12.0549L7.90936 18.7364C7.87864 20.2785 7.94808 21.8209 8.11723 23.354L2.37115 23.354C2.52901 21.7133 2.60088 20.0654 2.58644 18.4172L2.54932 8.32812Z" fill="black"/>
<path d="M4.82844 28.0686C5.79548 27.1403 6.9461 26.4246 8.20631 25.9677C10.448 25.2046 12.8019 24.8232 15.1699 24.8392C18.3622 24.8392 21.6732 25.5816 23.5886 26.6581C25.0839 27.4806 26.3233 28.6996 27.1708 30.1809C28.0182 31.6623 28.4407 33.3486 28.3918 35.0545C28.4226 36.3537 28.1875 37.6455 27.7012 38.8506C27.2148 40.0557 26.4873 41.1487 25.5633 42.0626C24.5977 42.989 23.4499 43.7045 22.1929 44.1636C19.9415 44.929 17.5775 45.3104 15.1996 45.292C12.0073 45.292 8.65916 44.5496 6.7438 43.4732C5.47169 42.6945 4.39143 41.6391 3.58329 40.3855C2.77515 39.1319 2.25991 37.7123 2.07588 36.2322C1.89185 34.7521 2.04374 33.2495 2.52029 31.8362C2.99683 30.4229 3.78576 29.1351 4.82844 28.0686V28.0686ZM15.4075 30.7561C9.96577 30.7561 7.16697 32.2408 7.16697 35.0768C7.16697 37.9127 9.90638 39.3455 15.3332 39.3455C20.5299 39.3455 23.2694 37.8607 23.2694 35.0545C23.2694 32.2483 20.3666 30.7561 15.4075 30.7561Z" fill="black"/>
<path d="M2.54927 51.098C2.54927 48.5071 2.54927 47.839 2.43048 46.7773C3.64472 46.8406 4.84776 47.0424 6.01622 47.3787C8.6048 48.1569 10.9493 49.5887 12.8239 51.5361C14.3174 53.1324 15.678 54.8481 16.8922 56.6659C18.6591 59.1455 19.446 59.7543 20.8417 59.7543C22.2374 59.7543 23.2767 58.5145 23.2767 56.6659C23.3213 56.0829 23.2067 55.4988 22.9452 54.9758C22.6837 54.4528 22.2851 54.0106 21.792 53.6964C21.0125 53.2479 20.1366 52.9933 19.2381 52.954L19.9063 46.8961C22.5566 47.3267 23.8929 47.8464 25.3183 49.0045C27.3599 50.6452 28.4512 53.2732 28.4512 56.6437C28.4512 60.5412 27.0852 63.5108 24.6205 64.951C23.5443 65.5868 22.3143 65.9155 21.0644 65.9012C19.9828 65.9137 18.9124 65.6818 17.9329 65.223C16.9534 64.7641 16.0901 64.09 15.4074 63.2509C14.2299 61.9332 13.1435 60.5367 12.1558 59.0713C10.3295 56.562 9.26788 55.493 7.93158 54.8248L7.93158 61.5509C7.90051 63.0905 7.96995 64.6305 8.13945 66.1611L2.39337 66.1611C2.55142 64.5228 2.62328 62.8774 2.60866 61.2316L2.54927 51.098Z" fill="black"/>
<path d="M2.5492 71.974C2.5492 69.3756 2.5492 68.7149 2.43042 67.6459C3.64497 67.7114 4.84803 67.9156 6.01615 68.2546C8.60437 69.0298 10.949 70.4591 12.8238 72.4046C14.3072 74.0065 15.6602 75.7244 16.8699 77.5419C18.6367 80.0215 19.4237 80.6228 20.8194 80.6228C22.215 80.6228 23.2544 79.383 23.2544 77.5419C23.3006 76.9587 23.1867 76.3739 22.9251 75.8506C22.6634 75.3273 22.2639 74.8853 21.7696 74.5723C20.9915 74.1206 20.1148 73.8657 19.2158 73.83L19.884 67.7721C22.5343 68.2027 23.8706 68.7223 25.296 69.873C27.3375 71.5211 28.4288 74.1418 28.4288 77.5196C28.4288 81.4097 27.0628 84.3867 24.5981 85.8269C23.5219 86.4628 22.292 86.7915 21.0421 86.7772C19.9607 86.788 18.8908 86.5554 17.9116 86.0967C16.9323 85.6379 16.0688 84.9647 15.3851 84.1269C14.2104 82.8041 13.1241 81.4054 12.1334 79.9398C10.3071 77.4305 9.24554 76.3689 7.90924 75.7008L7.90924 82.3822C7.87821 83.9243 7.94764 85.4668 8.11711 86.9999L2.37103 86.9999C2.5289 85.3616 2.60077 83.7162 2.58632 82.0705L2.5492 71.974Z" fill="black"/>
</svg>
