<svg width="909" height="268" viewBox="0 0 909 268" fill="none" xmlns="http://www.w3.org/2000/svg">
<g opacity="0.6" filter="url(#filter0_b_202_98)">
<path d="M10.5 14.2069V13.7069H55.985C65.0887 13.7069 72.4058 14.9359 77.9363 17.3939C83.3497 19.7153 88.1053 23.3391 91.7796 27.9428C95.4965 32.6887 98.1929 38.1513 99.6998 43.9881C101.372 50.3379 102.199 56.8809 102.158 63.4472C102.158 74.144 100.94 82.4397 98.5049 88.3344C96.2515 93.9613 92.7903 99.0249 88.3657 103.168C84.4387 106.921 79.6498 109.653 74.42 111.122C68.4206 112.834 62.2229 113.752 55.985 113.853M10.5 14.2069H10V113.353H10.5M10.5 14.2069V113.353M10.5 14.2069H55.985C65.0508 14.2069 72.2906 15.4319 77.7332 17.8508L77.7392 17.8534C83.0763 20.142 87.7648 23.7146 91.3875 28.2531M10.5 113.353V113.853H55.985M10.5 113.353H55.9806M55.985 113.853V113.353H55.9806M55.985 113.853L55.9769 113.353C55.9781 113.353 55.9794 113.353 55.9806 113.353M55.9806 113.353C62.1736 113.252 68.3266 112.34 74.2828 110.641L74.2847 110.641C79.4357 109.194 84.1524 106.503 88.0202 102.806L88.0239 102.803C92.3951 98.7099 95.8145 93.7075 98.0407 88.1485L98.0428 88.1435C100.442 82.3369 101.658 74.1169 101.658 63.4472V63.4441C101.699 56.9218 100.878 50.4227 99.2163 44.1154L99.2156 44.113C97.7262 38.3437 95.0611 32.9443 91.3875 28.2531M91.3875 28.2531C91.3879 28.2536 91.3883 28.2542 91.3888 28.2547L91.7794 27.943L91.3859 28.2511C91.3864 28.2518 91.387 28.2524 91.3875 28.2531ZM40.9468 35.9775H40.4468V36.4775V91.0996V91.5996H40.9468H48.5257C55.0114 91.5996 59.7218 90.8803 62.5687 89.3738L62.5755 89.3702L62.5822 89.3663C65.6292 87.6317 67.9753 84.8883 69.2163 81.6095C70.81 77.9407 71.5744 72.0523 71.5744 64.0446C71.5744 53.4129 69.8731 45.9807 66.3304 41.9183C62.7778 37.8447 56.837 35.9091 48.6603 35.9775H40.9468Z" fill="#06100E" fill-opacity="0.5" stroke="#FF4D01"/>
<path d="M160.711 14.2069H190.726V113.353H160.711V14.2069Z" fill="#06100E" fill-opacity="0.5" stroke="#FF4D01"/>
<path d="M722.188 97.1851L722.08 96.83H721.709H686.597H686.224L686.118 97.1883L681.342 113.353H650.825L688.104 14.2069H721.158L758.42 113.353H727.082L722.188 97.1851ZM715.308 76.2372H715.985L715.786 75.5903L704.725 39.5909L704.245 38.0269L703.769 39.5924L692.827 75.5918L692.631 76.2372H693.306H715.308Z" fill="#06100E" fill-opacity="0.5" stroke="#FF4D01"/>
<path d="M848.296 89.6879H896.085V113.353H817.883V14.2069H847.796V89.1879V89.6879H848.296Z" fill="#06100E" fill-opacity="0.5" stroke="#FF4D01"/>
<path d="M301.569 115.06L301.569 115.06H301.56C289.732 115.06 280.149 113.043 272.781 109.044C265.34 105.003 259.331 98.759 255.58 91.1683L255.58 91.1682C251.377 82.668 249.287 73.2794 249.486 63.7991L249.487 63.7882L249.486 63.7774C249.265 53.9274 251.596 44.1876 256.253 35.5054C260.697 27.5272 267.547 21.156 275.826 17.301L275.829 17.2996C282.564 14.1114 291.586 12.5 302.926 12.5C313.987 12.5 322.178 13.5074 327.591 15.4742L327.594 15.4754C332.792 17.3207 337.423 20.4806 341.036 24.6474C344.741 29.1288 347.446 34.3482 348.971 39.9554L320.086 45.1082C318.968 41.6637 316.755 38.6735 313.778 36.5966L313.769 36.5902L313.759 36.5841C310.322 34.4105 306.305 33.3355 302.243 33.5021C299.113 33.3776 295.995 33.9629 293.123 35.2144C290.245 36.4686 287.689 38.3593 285.647 40.744L285.647 40.7443C281.505 45.5884 279.479 53.1917 279.467 63.4467V63.4472C279.467 74.3302 281.512 82.2219 285.72 86.9924C289.917 91.7507 295.754 94.1199 303.163 94.143C306.572 94.1534 309.962 93.639 313.215 92.6179L313.215 92.6181L313.227 92.6139C317.045 91.3055 320.703 89.5717 324.133 87.445L324.37 87.2984V87.0201V77.5807V77.0807H323.87H303.596V57.2389H350.391V99.1555C343.026 104.413 334.967 108.625 326.445 111.671C318.377 114.072 309.986 115.215 301.569 115.06Z" fill="#06100E" fill-opacity="0.5" stroke="#FF4D01"/>
<path d="M409.924 14.2069H439.939V113.353H409.924V14.2069Z" fill="#06100E" fill-opacity="0.5" stroke="#FF4D01"/>
<path d="M529.73 37.9405H498.685V14.2069H591.738V37.9405H560.676H560.176V38.4405V113.353H530.23V38.4405V37.9405H529.73Z" fill="#06100E" fill-opacity="0.5" stroke="#FF4D01"/>
<path d="M66.8818 214.738L82.3699 154.176H122.158V253.323H97.8101V177.369L96.8257 177.245L77.3774 253.237H55.2298L35.8325 177.245L34.8481 177.369V253.237H10.5V154.176H50.306L65.9132 214.739L66.8818 214.738Z" fill="#06100E" fill-opacity="0.5" stroke="#FF4D01"/>
<path d="M201.571 237.155L201.464 236.799H201.092H165.963H165.59L165.484 237.158L160.708 253.323H130.207L167.385 154.176H200.524L237.786 253.323H206.448L201.571 237.155ZM194.674 216.138H195.351L195.152 215.491L184.091 179.492L183.61 177.927L183.135 179.494L172.21 215.493L172.014 216.138H172.689H194.674Z" fill="#06100E" fill-opacity="0.5" stroke="#FF4D01"/>
<path d="M328.416 225.042L343.023 253.323H309.184L292.793 222.995C291.441 220.01 289.491 217.334 287.065 215.132L287.041 215.109L287.014 215.091C284.705 213.491 281.956 212.648 279.147 212.68H276.419H275.919V213.18V253.321L245.836 253.239V154.176H296.92C306.461 154.176 313.705 154.995 318.683 156.61L318.686 156.611C323.567 158.159 327.786 161.307 330.661 165.545C333.799 170.249 335.392 175.815 335.219 181.467L335.218 181.484L335.219 181.502C335.404 186.274 334.283 191.006 331.978 195.188C329.674 199.369 326.273 202.843 322.141 205.234C318.79 207.082 315.172 208.399 311.417 209.139L311.407 210.118C316.621 211.259 321.18 214.399 324.103 218.865L324.12 218.892L324.14 218.916C325.76 220.815 327.192 222.867 328.416 225.042ZM275.919 194.184L275.921 194.682H276.419H289.46H289.48L289.499 194.681C292.296 194.466 295.068 193.999 297.781 193.287C299.904 192.879 301.798 191.691 303.09 189.957L303.093 189.953C304.603 187.883 305.315 185.336 305.098 182.783C304.881 180.229 303.749 177.84 301.911 176.054L301.898 176.041L301.884 176.03C300.776 175.101 299.217 174.43 297.247 173.988C295.274 173.544 292.858 173.324 290.008 173.318H290.007H276.351H275.849L275.851 173.82L275.919 194.184Z" fill="#06100E" fill-opacity="0.5" stroke="#FF4D01"/>
<path d="M381.187 229.311V253.237H351.171V154.176H381.118V191.519V192.871L381.998 191.845L414.28 154.176H454.025L418.351 191.052L418.081 191.33L418.284 191.661L456.002 253.237H419.101L398.125 212.321L397.805 211.694L397.319 212.204L381.325 228.966L381.187 229.111V229.311Z" fill="#06100E" fill-opacity="0.5" stroke="#FF4D01"/>
<path d="M494.737 231.706H547.664V253.374H464.222V154.176H546.197V174.564H494.737H494.237V175.064V190.973V191.473H494.737H542.407V210.956H494.737H494.237V211.456V231.206V231.706H494.737Z" fill="#06100E" fill-opacity="0.5" stroke="#FF4D01"/>
<path d="M586.554 177.825H555.492V154.176H648.562V177.91H617.5H617V178.41V253.323H587.054V178.325V177.825H586.554Z" fill="#06100E" fill-opacity="0.5" stroke="#FF4D01"/>
<path d="M656.389 154.176H686.405V253.323H656.389V154.176Z" fill="#06100E" fill-opacity="0.5" stroke="#FF4D01"/>
<path d="M760.837 209.084V154.176H789.009V253.323H760.601L723.197 198.56L722.285 197.223V198.842V253.323H694.232V154.176H722.366L759.924 209.365L760.837 210.707V209.084Z" fill="#06100E" fill-opacity="0.5" stroke="#FF4D01"/>
<path d="M848.985 255.03L848.985 255.029H848.976C837.148 255.029 827.565 253.012 820.197 249.013C812.756 244.972 806.748 238.728 802.996 231.138L802.995 231.137C798.775 222.641 796.667 213.252 796.851 203.768L796.851 203.757L796.851 203.747C796.629 193.897 798.961 184.157 803.618 175.475C808.062 167.497 814.912 161.125 823.191 157.27L823.193 157.269C829.929 154.092 838.951 152.481 850.291 152.469C861.336 152.469 869.543 153.471 874.955 155.443L874.959 155.445C880.158 157.295 884.789 160.461 888.401 164.634C892.11 169.107 894.815 174.321 896.336 179.925L867.468 185.061C866.348 181.612 864.128 178.62 861.142 176.548L861.133 176.542L861.124 176.536C857.691 174.368 853.681 173.293 849.625 173.454C846.495 173.33 843.377 173.915 840.505 175.167C837.627 176.421 835.072 178.311 833.03 180.696C828.864 185.54 826.838 193.145 826.849 203.4C826.849 214.283 828.895 222.174 833.102 226.945C837.299 231.703 843.136 234.072 850.545 234.095C853.954 234.106 857.344 233.591 860.597 232.57L860.597 232.57L860.609 232.566C864.427 231.258 868.085 229.524 871.515 227.397L871.752 227.251V226.972V217.55V217.05L871.252 217.05L851.013 217.033V197.208H897.807V239.125C890.442 244.382 882.383 248.594 873.862 251.64C865.793 254.041 857.402 255.184 848.985 255.03Z" fill="#06100E" fill-opacity="0.5" stroke="#FF4D01"/>
</g>
<defs>
<filter id="filter0_b_202_98" x="8" y="10" width="892.307" height="247.543" filterUnits="userSpaceOnUse" color-interpolation-filters="sRGB">
<feFlood flood-opacity="0" result="BackgroundImageFix"/>
<feGaussianBlur in="BackgroundImage" stdDeviation="1"/>
<feComposite in2="SourceAlpha" operator="in" result="effect1_backgroundBlur_202_98"/>
<feBlend mode="normal" in="SourceGraphic" in2="effect1_backgroundBlur_202_98" result="shape"/>
</filter>
</defs>
</svg>
