<svg width="496" height="1045" viewBox="0 0 496 1045" fill="none" xmlns="http://www.w3.org/2000/svg">
<g clip-path="url(#clip0_218_2)">
<g opacity="0.3" clip-path="url(#clip1_218_2)">
<path d="M249.502 2158.52C249.465 2158.52 249.43 2158.46 249.404 2158.36C249.378 2158.26 249.364 2158.12 249.364 2157.97V715.625C249.364 715.48 249.378 715.342 249.404 715.24C249.43 715.138 249.465 715.081 249.502 715.081C249.538 715.081 249.574 715.138 249.6 715.24C249.625 715.342 249.64 715.48 249.64 715.625V2157.97C249.64 2158.12 249.625 2158.26 249.6 2158.36C249.574 2158.46 249.538 2158.52 249.502 2158.52Z" fill="white"/>
<path d="M31.5593 2158.52C31.5356 2158.52 31.5123 2158.5 31.4916 2158.45C31.4708 2158.4 31.4534 2158.34 31.4409 2158.26C31.4284 2158.18 31.4213 2158.09 31.4202 2158C31.4192 2157.9 31.4242 2157.81 31.4349 2157.73L214.692 715.38C214.701 715.316 214.712 715.259 214.726 715.213C214.74 715.166 214.755 715.13 214.773 715.108C214.79 715.085 214.808 715.076 214.826 715.082C214.844 715.087 214.862 715.106 214.878 715.138C214.895 715.17 214.909 715.215 214.921 715.269C214.933 715.323 214.942 715.386 214.948 715.454C214.953 715.522 214.956 715.594 214.954 715.665C214.953 715.736 214.948 715.806 214.94 715.87L31.6824 2158.22C31.6709 2158.31 31.6533 2158.38 31.6316 2158.44C31.6099 2158.49 31.5849 2158.52 31.5593 2158.52Z" fill="white"/>
<path d="M466.322 2158.52C466.296 2158.52 466.271 2158.49 466.249 2158.44C466.227 2158.38 466.209 2158.31 466.197 2158.22L283.565 715.865C283.556 715.801 283.551 715.73 283.549 715.658C283.547 715.585 283.549 715.512 283.555 715.442C283.561 715.373 283.57 715.309 283.582 715.253C283.594 715.198 283.608 715.153 283.625 715.12C283.642 715.088 283.66 715.069 283.678 715.064C283.697 715.06 283.715 715.07 283.733 715.095C283.75 715.119 283.766 715.156 283.78 715.206C283.793 715.255 283.804 715.314 283.812 715.38L466.445 2157.73C466.453 2157.79 466.458 2157.86 466.459 2157.94C466.461 2158.01 466.458 2158.08 466.453 2158.15C466.447 2158.22 466.438 2158.28 466.426 2158.33C466.414 2158.39 466.399 2158.43 466.383 2158.46C466.364 2158.5 466.343 2158.52 466.322 2158.52Z" fill="white"/>
<path d="M-185.858 1301.3C-185.883 1301.3 -185.909 1301.27 -185.93 1301.22C-185.952 1301.16 -185.969 1301.09 -185.981 1301C-185.997 1300.87 -186 1300.72 -185.989 1300.58C-185.977 1300.45 -185.953 1300.33 -185.92 1300.27L111.343 715.141C111.375 715.077 111.413 715.066 111.448 715.112C111.483 715.158 111.511 715.257 111.528 715.386C111.544 715.515 111.547 715.664 111.535 715.801C111.523 715.938 111.498 716.05 111.466 716.115L-185.796 1301.24C-185.815 1301.28 -185.836 1301.3 -185.858 1301.3V1301.3Z" fill="white"/>
<path d="M-185.858 1587.65C-185.88 1587.65 -185.903 1587.63 -185.923 1587.59C-185.943 1587.55 -185.96 1587.49 -185.973 1587.41C-185.983 1587.35 -185.99 1587.29 -185.993 1587.22C-185.997 1587.15 -185.997 1587.08 -185.994 1587.01C-185.99 1586.94 -185.983 1586.87 -185.973 1586.81C-185.963 1586.75 -185.95 1586.7 -185.935 1586.66L145.859 715.173C145.874 715.133 145.891 715.105 145.909 715.091C145.926 715.077 145.945 715.076 145.963 715.09C145.981 715.104 145.998 715.131 146.013 715.171C146.028 715.21 146.041 715.261 146.051 715.32C146.061 715.38 146.068 715.447 146.072 715.517C146.075 715.588 146.075 715.66 146.072 715.73C146.068 715.8 146.061 715.867 146.051 715.927C146.041 715.986 146.028 716.037 146.012 716.077L-185.78 1587.56C-185.803 1587.62 -185.83 1587.65 -185.858 1587.65V1587.65Z" fill="white"/>
<path d="M-185.837 2158.6C-185.873 2158.6 -185.908 2158.54 -185.934 2158.44C-185.96 2158.34 -185.974 2158.2 -185.974 2158.06C-185.974 2157.91 -185.96 2157.78 -185.934 2157.67L180.276 715.239C180.302 715.136 180.337 715.079 180.374 715.079C180.411 715.079 180.446 715.136 180.472 715.239C180.498 715.341 180.513 715.48 180.513 715.625C180.513 715.77 180.498 715.909 180.472 716.011L-185.739 2158.44C-185.752 2158.49 -185.767 2158.53 -185.784 2158.56C-185.801 2158.59 -185.819 2158.6 -185.837 2158.6Z" fill="white"/>
<path d="M-185.858 874.026C-185.889 874.029 -185.92 873.99 -185.945 873.915C-185.971 873.84 -185.988 873.733 -185.996 873.612C-186.005 873.472 -185.999 873.324 -185.98 873.201C-185.961 873.077 -185.931 872.988 -185.895 872.953L111.366 579.746C111.384 579.728 111.402 579.724 111.42 579.734C111.438 579.744 111.456 579.769 111.471 579.806C111.487 579.843 111.501 579.891 111.512 579.949C111.523 580.007 111.53 580.073 111.535 580.143C111.543 580.283 111.538 580.431 111.519 580.554C111.5 580.678 111.469 580.766 111.434 580.801L-185.825 874.026C-185.836 874.031 -185.847 874.031 -185.858 874.026V874.026Z" fill="white"/>
<path d="M684.861 1301.23C684.84 1301.23 684.819 1301.21 684.799 1301.18L387.34 716.109C387.308 716.045 387.283 715.932 387.271 715.795C387.259 715.659 387.262 715.509 387.278 715.38C387.286 715.315 387.297 715.258 387.311 715.21C387.325 715.163 387.341 715.127 387.358 715.104C387.376 715.081 387.394 715.072 387.412 715.078C387.431 715.083 387.448 715.103 387.465 715.135L684.924 1300.2C684.956 1300.27 684.981 1300.38 684.992 1300.52C685.004 1300.65 685.001 1300.8 684.984 1300.93C684.973 1301.02 684.955 1301.1 684.934 1301.15C684.912 1301.2 684.887 1301.23 684.861 1301.23Z" fill="white"/>
<path d="M684.861 1589.95C684.834 1589.95 684.807 1589.92 684.784 1589.86L352.501 716.077C352.484 716.039 352.47 715.989 352.459 715.929C352.448 715.869 352.44 715.801 352.436 715.729C352.432 715.657 352.432 715.582 352.435 715.509C352.438 715.436 352.445 715.367 352.456 715.306C352.466 715.244 352.48 715.192 352.496 715.151C352.511 715.111 352.529 715.084 352.548 715.072C352.566 715.059 352.585 715.062 352.603 715.079C352.622 715.097 352.639 715.129 352.654 715.173L684.939 1588.95C684.963 1589.02 684.982 1589.11 684.992 1589.22C685.002 1589.33 685.003 1589.45 684.994 1589.56C684.985 1589.68 684.968 1589.77 684.944 1589.84C684.92 1589.91 684.891 1589.95 684.861 1589.95V1589.95Z" fill="white"/>
<path d="M684.861 874.385C684.85 874.39 684.839 874.39 684.828 874.385L387.372 580.742C387.338 580.703 387.309 580.613 387.291 580.491C387.273 580.369 387.268 580.225 387.276 580.088C387.285 579.952 387.307 579.834 387.337 579.759C387.367 579.684 387.403 579.658 387.438 579.686L684.895 873.324C684.93 873.359 684.961 873.448 684.98 873.571C684.999 873.695 685.004 873.842 684.996 873.982C684.988 874.098 684.97 874.201 684.946 874.274C684.922 874.346 684.892 874.386 684.861 874.385Z" fill="white"/>
<path d="M683.7 2158.52C683.682 2158.52 683.664 2158.5 683.647 2158.48C683.63 2158.45 683.615 2158.41 683.602 2158.36L318.038 716.005C318.015 715.901 318.004 715.767 318.005 715.63C318.006 715.493 318.021 715.364 318.045 715.267C318.07 715.17 318.103 715.113 318.138 715.108C318.173 715.103 318.207 715.149 318.233 715.238L683.798 2157.59C683.818 2157.66 683.831 2157.76 683.836 2157.87C683.842 2157.97 683.839 2158.08 683.828 2158.18C683.818 2158.28 683.8 2158.37 683.777 2158.43C683.754 2158.49 683.727 2158.52 683.7 2158.52V2158.52Z" fill="white"/>
<path d="M-185.858 445.711C-185.894 445.711 -185.93 445.654 -185.956 445.552C-185.981 445.45 -185.996 445.311 -185.996 445.167C-185.996 445.023 -185.981 444.884 -185.956 444.782C-185.93 444.68 -185.894 444.623 -185.858 444.623L111.405 443.872C111.441 443.872 111.477 443.929 111.503 444.031C111.528 444.133 111.543 444.272 111.543 444.416C111.543 444.56 111.528 444.699 111.503 444.801C111.477 444.903 111.441 444.96 111.405 444.96L-185.858 445.711Z" fill="white"/>
<path d="M111.405 309.092H111.37L-185.891 17.3639C-185.927 17.3292 -185.957 17.2403 -185.976 17.1168C-185.995 16.9934 -186.001 16.8455 -185.992 16.7056C-185.983 16.5656 -185.96 16.445 -185.929 16.3705C-185.898 16.2961 -185.86 16.2738 -185.825 16.3084L111.438 308.02C111.456 308.028 111.474 308.051 111.49 308.086C111.505 308.122 111.519 308.169 111.531 308.225C111.542 308.282 111.55 308.347 111.555 308.416C111.56 308.485 111.562 308.558 111.56 308.629C111.557 308.701 111.552 308.77 111.543 308.833C111.534 308.895 111.522 308.95 111.507 308.995C111.493 309.039 111.476 309.072 111.459 309.092C111.441 309.111 111.423 309.117 111.405 309.108V309.092Z" fill="white"/>
<path d="M111.405 172.489C111.383 172.49 111.362 172.471 111.343 172.434L-185.92 -412.713C-185.953 -412.779 -185.977 -412.892 -185.989 -413.029C-186 -413.165 -185.997 -413.314 -185.981 -413.443C-185.964 -413.572 -185.936 -413.67 -185.901 -413.716C-185.866 -413.762 -185.828 -413.751 -185.796 -413.687L111.466 171.46C111.493 171.516 111.515 171.606 111.528 171.716C111.541 171.826 111.544 171.95 111.537 172.068C111.53 172.186 111.513 172.292 111.489 172.368C111.465 172.444 111.436 172.487 111.405 172.489Z" fill="white"/>
<path d="M145.627 172.489C145.6 172.49 145.573 172.46 145.551 172.402L-185.934 -696.024C-185.964 -696.104 -185.985 -696.228 -185.992 -696.368C-186 -696.509 -185.993 -696.655 -185.972 -696.775C-185.952 -696.894 -185.921 -696.977 -185.885 -697.006C-185.849 -697.034 -185.812 -697.006 -185.782 -696.927L145.704 171.499C145.729 171.564 145.747 171.659 145.757 171.769C145.767 171.879 145.768 171.998 145.759 172.11C145.75 172.221 145.733 172.319 145.709 172.388C145.685 172.457 145.656 172.495 145.627 172.495V172.489Z" fill="white"/>
<path d="M284.043 172.489C284.022 172.489 284.001 172.47 283.982 172.434C283.949 172.37 283.924 172.257 283.913 172.121C283.901 171.984 283.904 171.834 283.92 171.705L466.996 -1270.67C467.004 -1270.73 467.014 -1270.8 467.028 -1270.85C467.042 -1270.9 467.058 -1270.94 467.076 -1270.97C467.094 -1270.99 467.113 -1271 467.132 -1271C467.151 -1270.99 467.169 -1270.98 467.186 -1270.94C467.203 -1270.91 467.218 -1270.86 467.23 -1270.8C467.243 -1270.75 467.251 -1270.68 467.257 -1270.61C467.262 -1270.53 467.263 -1270.46 467.261 -1270.39C467.259 -1270.31 467.252 -1270.24 467.242 -1270.18L284.167 172.19C284.156 172.28 284.138 172.356 284.116 172.409C284.094 172.462 284.069 172.489 284.043 172.489V172.489Z" fill="white"/>
<path d="M180.237 172.489C180.201 172.488 180.166 172.432 180.14 172.331L-185.955 -1265.89C-185.967 -1265.94 -185.978 -1266 -185.985 -1266.07C-185.992 -1266.14 -185.995 -1266.21 -185.995 -1266.28C-185.995 -1266.35 -185.992 -1266.42 -185.985 -1266.49C-185.978 -1266.55 -185.967 -1266.62 -185.955 -1266.67C-185.942 -1266.72 -185.926 -1266.76 -185.91 -1266.78C-185.893 -1266.81 -185.875 -1266.83 -185.856 -1266.83C-185.838 -1266.83 -185.82 -1266.81 -185.803 -1266.78C-185.786 -1266.76 -185.771 -1266.72 -185.758 -1266.67L180.332 171.558C180.358 171.66 180.373 171.798 180.373 171.942C180.373 172.086 180.358 172.224 180.332 172.326C180.307 172.427 180.273 172.485 180.237 172.489V172.489Z" fill="white"/>
<path d="M214.838 172.489C214.812 172.488 214.787 172.46 214.765 172.407C214.744 172.355 214.726 172.279 214.715 172.19L30.9759 -1270.18C30.9594 -1270.3 30.9566 -1270.45 30.9681 -1270.59C30.9797 -1270.73 31.0046 -1270.84 31.0374 -1270.91C31.0702 -1270.97 31.1083 -1270.98 31.1431 -1270.94C31.178 -1270.89 31.2069 -1270.79 31.2234 -1270.67L214.962 171.705C214.978 171.834 214.981 171.983 214.97 172.119C214.959 172.256 214.934 172.369 214.901 172.434C214.881 172.472 214.86 172.491 214.838 172.489V172.489Z" fill="white"/>
<path d="M249.502 172.489C249.465 172.489 249.43 172.431 249.404 172.329C249.378 172.227 249.364 172.089 249.364 171.945V-1270.42C249.364 -1270.56 249.378 -1270.7 249.404 -1270.8C249.43 -1270.91 249.465 -1270.96 249.502 -1270.96C249.538 -1270.96 249.574 -1270.91 249.6 -1270.8C249.625 -1270.7 249.64 -1270.56 249.64 -1270.42V171.945C249.64 172.089 249.625 172.227 249.6 172.329C249.574 172.431 249.538 172.489 249.502 172.489Z" fill="white"/>
<path d="M353.25 172.489C353.227 172.489 353.205 172.468 353.185 172.426C353.165 172.384 353.148 172.323 353.135 172.25C353.125 172.19 353.118 172.123 353.114 172.053C353.111 171.982 353.111 171.91 353.115 171.84C353.118 171.769 353.125 171.703 353.135 171.643C353.146 171.584 353.159 171.533 353.174 171.493L684.785 -698.315C684.816 -698.392 684.853 -698.417 684.888 -698.388C684.924 -698.358 684.955 -698.274 684.975 -698.155C684.995 -698.036 685.002 -697.89 684.995 -697.75C684.988 -697.61 684.967 -697.487 684.937 -697.406L353.33 172.402C353.306 172.463 353.278 172.493 353.25 172.489Z" fill="white"/>
<path d="M318.646 172.489C318.619 172.488 318.593 172.456 318.57 172.397C318.548 172.337 318.53 172.253 318.519 172.154C318.509 172.055 318.506 171.947 318.511 171.842C318.516 171.737 318.529 171.64 318.548 171.563L684.763 -1269.74C684.776 -1269.79 684.791 -1269.83 684.808 -1269.86C684.825 -1269.89 684.843 -1269.9 684.862 -1269.9C684.88 -1269.9 684.898 -1269.89 684.915 -1269.86C684.932 -1269.83 684.947 -1269.79 684.96 -1269.74C684.985 -1269.64 685 -1269.5 685 -1269.36C685 -1269.21 684.985 -1269.07 684.96 -1268.97L318.745 172.331C318.732 172.381 318.716 172.421 318.7 172.448C318.683 172.475 318.665 172.489 318.646 172.489V172.489Z" fill="white"/>
<path d="M387.405 172.875C387.374 172.877 387.343 172.836 387.318 172.76C387.294 172.684 387.276 172.577 387.269 172.456C387.262 172.336 387.265 172.209 387.279 172.097C387.292 171.986 387.315 171.895 387.343 171.841L684.799 -413.687C684.832 -413.751 684.87 -413.762 684.905 -413.716C684.94 -413.67 684.968 -413.572 684.985 -413.443C685.001 -413.314 685.004 -413.165 684.992 -413.029C684.981 -412.892 684.956 -412.779 684.924 -412.713L387.468 172.815C387.448 172.853 387.427 172.873 387.405 172.875V172.875Z" fill="white"/>
<path d="M387.405 309.157C387.374 309.161 387.343 309.122 387.318 309.047C387.292 308.971 387.275 308.865 387.267 308.744C387.258 308.604 387.264 308.456 387.283 308.332C387.302 308.209 387.332 308.12 387.368 308.085L684.824 15.8894C684.859 15.861 684.895 15.887 684.926 15.962C684.956 16.0369 684.978 16.1549 684.986 16.2914C684.995 16.428 684.99 16.5724 684.972 16.6942C684.954 16.816 684.925 16.906 684.89 16.945L387.434 309.141C387.425 309.15 387.415 309.156 387.405 309.157Z" fill="white"/>
<path d="M684.862 445.678L387.405 444.944C387.369 444.944 387.333 444.887 387.308 444.785C387.282 444.683 387.267 444.544 387.267 444.4C387.267 444.256 387.282 444.117 387.308 444.015C387.333 443.913 387.369 443.856 387.405 443.856L684.862 444.59C684.898 444.59 684.933 444.648 684.959 444.75C684.985 444.852 685 444.99 685 445.134C685 445.279 684.985 445.417 684.959 445.519C684.933 445.621 684.898 445.678 684.862 445.678Z" fill="white"/>
<path d="M639.747 1212.51H-140.747C-140.784 1212.51 -140.819 1212.45 -140.845 1212.35C-140.871 1212.24 -140.885 1212.11 -140.885 1211.96V-324.391C-140.885 -324.535 -140.871 -324.674 -140.845 -324.776C-140.819 -324.878 -140.784 -324.935 -140.747 -324.935H639.747C639.783 -324.935 639.818 -324.878 639.844 -324.776C639.87 -324.674 639.885 -324.535 639.885 -324.391V1211.96C639.885 1212.11 639.87 1212.24 639.844 1212.35C639.818 1212.45 639.783 1212.51 639.747 1212.51ZM-140.609 1211.42H639.608V-323.847H-140.609V1211.42Z" fill="white"/>
<path d="M602.444 1139.12H-103.47C-103.507 1139.12 -103.542 1139.07 -103.568 1138.97C-103.594 1138.86 -103.608 1138.72 -103.608 1138.58V-251.026C-103.608 -251.171 -103.594 -251.309 -103.568 -251.411C-103.542 -251.513 -103.507 -251.571 -103.47 -251.571H602.451C602.488 -251.571 602.523 -251.513 602.549 -251.411C602.575 -251.309 602.59 -251.171 602.59 -251.026V1138.58C602.59 1138.65 602.586 1138.73 602.578 1138.8C602.571 1138.86 602.56 1138.92 602.547 1138.98C602.533 1139.03 602.517 1139.07 602.5 1139.09C602.482 1139.12 602.463 1139.13 602.444 1139.12ZM-103.332 1138.04H602.313V-250.482H-103.332V1138.04Z" fill="white"/>
<path d="M571.136 1077.53H-72.1873C-72.224 1077.53 -72.2591 1077.47 -72.2851 1077.37C-72.311 1077.27 -72.3256 1077.13 -72.3256 1076.98V-189.437C-72.3256 -189.581 -72.311 -189.72 -72.2851 -189.822C-72.2591 -189.924 -72.224 -189.981 -72.1873 -189.981H571.136C571.172 -189.981 571.207 -189.924 571.233 -189.822C571.259 -189.72 571.274 -189.581 571.274 -189.437V1076.98C571.274 1077.13 571.259 1077.27 571.233 1077.37C571.207 1077.47 571.172 1077.53 571.136 1077.53ZM-72.0491 1076.44H570.997V-188.893H-72.0491V1076.44Z" fill="white"/>
<path d="M544.924 1026H-45.9966C-46.0333 1026 -46.0685 1025.94 -46.0944 1025.84C-46.1203 1025.74 -46.1349 1025.6 -46.1349 1025.46V-137.886C-46.1349 -138.031 -46.1203 -138.169 -46.0944 -138.271C-46.0685 -138.373 -46.0333 -138.43 -45.9966 -138.43H544.924C544.961 -138.43 544.996 -138.373 545.022 -138.271C545.048 -138.169 545.062 -138.031 545.062 -137.886V1025.46C545.062 1025.6 545.048 1025.74 545.022 1025.84C544.996 1025.94 544.961 1026 544.924 1026ZM-45.8584 1024.91H544.786V-137.342H-45.8584V1024.91Z" fill="white"/>
<path d="M522.663 982.203H-23.7475C-23.7842 982.203 -23.8193 982.146 -23.8453 982.044C-23.8712 981.942 -23.8857 981.804 -23.8857 981.659V-94.0784C-23.8857 -94.2227 -23.8712 -94.3611 -23.8453 -94.4631C-23.8193 -94.5652 -23.7842 -94.6226 -23.7475 -94.6226H522.663C522.699 -94.6226 522.735 -94.5652 522.761 -94.4631C522.786 -94.3611 522.801 -94.2227 522.801 -94.0784V981.659C522.801 981.804 522.786 981.942 522.761 982.044C522.735 982.146 522.699 982.203 522.663 982.203ZM-23.6092 981.115H522.524V-93.5343H-23.6092V981.115Z" fill="white"/>
<path d="M503.517 944.539H-4.61883C-4.65549 944.539 -4.69067 944.481 -4.71659 944.379C-4.74252 944.277 -4.75708 944.139 -4.75708 943.995V-56.4307C-4.75708 -56.575 -4.74252 -56.7134 -4.71659 -56.8154C-4.69067 -56.9175 -4.65549 -56.9749 -4.61883 -56.9749H503.517C503.554 -56.9749 503.589 -56.9175 503.615 -56.8154C503.641 -56.7134 503.656 -56.575 503.656 -56.4307V943.995C503.656 944.139 503.641 944.277 503.615 944.379C503.589 944.481 503.554 944.539 503.517 944.539ZM-4.48057 943.45H503.379V-55.8866H-4.48057V943.45Z" fill="white"/>
<path d="M486.883 911.815H12.009C11.9723 911.815 11.9372 911.758 11.9112 911.656C11.8853 911.554 11.8707 911.415 11.8707 911.271V-23.7015C11.8707 -23.8458 11.8853 -23.9841 11.9112 -24.0862C11.9372 -24.1882 11.9723 -24.2456 12.009 -24.2456H486.883C486.919 -24.2456 486.955 -24.1882 486.981 -24.0862C487.006 -23.9841 487.021 -23.8458 487.021 -23.7015V911.271C487.021 911.415 487.006 911.554 486.981 911.656C486.955 911.758 486.919 911.815 486.883 911.815ZM12.1528 910.727H486.745V-23.1574H12.1472L12.1528 910.727Z" fill="white"/>
<path d="M472.28 883.102H26.596C26.5593 883.102 26.5242 883.044 26.4983 882.942C26.4723 882.84 26.4578 882.702 26.4578 882.558V5.0014C26.4578 4.85709 26.4723 4.71873 26.4983 4.61669C26.5242 4.51464 26.5593 4.45728 26.596 4.45728H472.28C472.317 4.45728 472.352 4.51464 472.378 4.61669C472.404 4.71873 472.419 4.85709 472.419 5.0014V882.558C472.419 882.702 472.404 882.84 472.378 882.942C472.352 883.044 472.317 883.102 472.28 883.102ZM26.7343 882.013H472.142V5.54553H26.7343V882.013Z" fill="white"/>
<path d="M459.37 857.702H39.4949C39.4583 857.702 39.4231 857.644 39.3972 857.542C39.3712 857.44 39.3567 857.302 39.3567 857.158V30.3906C39.3567 30.2463 39.3712 30.1079 39.3972 30.0058C39.4231 29.9038 39.4583 29.8464 39.4949 29.8464H459.37C459.407 29.8464 459.442 29.9038 459.468 30.0058C459.494 30.1079 459.508 30.2463 459.508 30.3906V857.158C459.508 857.302 459.494 857.44 459.468 857.542C459.442 857.644 459.407 857.702 459.37 857.702ZM39.6332 856.613H459.232V30.9347H39.6332V856.613Z" fill="white"/>
<path d="M447.877 835.11H50.9783C50.9417 835.11 50.9065 835.052 50.8806 834.95C50.8546 834.848 50.8401 834.71 50.8401 834.566V53.0041C50.8401 52.8598 50.8546 52.7214 50.8806 52.6194C50.9065 52.5173 50.9417 52.46 50.9783 52.46H447.877C447.914 52.46 447.949 52.5173 447.975 52.6194C448.001 52.7214 448.016 52.8598 448.016 53.0041V834.566C448.016 834.71 448.001 834.848 447.975 834.95C447.949 835.052 447.914 835.11 447.877 835.11ZM51.1166 834.022H447.739V53.5482H51.1166V834.022Z" fill="white"/>
<path d="M437.572 814.841H61.2755C61.2388 814.841 61.2036 814.783 61.1777 814.681C61.1518 814.579 61.1372 814.441 61.1372 814.297V73.2729C61.1372 73.1286 61.1518 72.9902 61.1777 72.8882C61.2036 72.7861 61.2388 72.7288 61.2755 72.7288H437.572C437.608 72.7288 437.644 72.7861 437.67 72.8882C437.695 72.9902 437.71 73.1286 437.71 73.2729V814.297C437.71 814.441 437.695 814.579 437.67 814.681C437.644 814.783 437.608 814.841 437.572 814.841ZM61.4137 813.752H437.434V73.817H61.4137V813.752Z" fill="white"/>
<path d="M428.284 796.564H70.5551C70.5185 796.564 70.4833 796.507 70.4574 796.405C70.4314 796.303 70.4169 796.165 70.4169 796.02V91.5341C70.4169 91.3898 70.4314 91.2512 70.4574 91.1491C70.4833 91.0471 70.5185 90.99 70.5551 90.99H428.284C428.321 90.99 428.356 91.0471 428.382 91.1491C428.408 91.2512 428.422 91.3898 428.422 91.5341V796.02C428.422 796.165 428.408 796.303 428.382 796.405C428.356 796.507 428.321 796.564 428.284 796.564ZM70.6934 795.476H428.146V92.0782H70.6934V795.476Z" fill="white"/>
<path d="M419.871 780.022H78.9636C78.9269 780.022 78.8917 779.965 78.8658 779.863C78.8399 779.761 78.8253 779.622 78.8253 779.478V108.097C78.8253 107.953 78.8399 107.814 78.8658 107.712C78.8917 107.61 78.9269 107.553 78.9636 107.553H419.871C419.908 107.553 419.943 107.61 419.969 107.712C419.995 107.814 420.01 107.953 420.01 108.097V779.478C420.01 779.622 419.995 779.761 419.969 779.863C419.943 779.965 419.908 780.022 419.871 780.022ZM79.1018 778.934H419.733V108.641H79.1018V778.934Z" fill="white"/>
<path d="M387.405 716.17H111.405C111.368 716.17 111.333 716.112 111.307 716.01C111.281 715.908 111.266 715.77 111.266 715.626V171.945C111.266 171.801 111.281 171.663 111.307 171.561C111.333 171.458 111.368 171.401 111.405 171.401H387.405C387.442 171.401 387.477 171.458 387.503 171.561C387.529 171.663 387.544 171.801 387.544 171.945V715.626C387.544 715.77 387.529 715.908 387.503 716.01C387.477 716.112 387.442 716.17 387.405 716.17ZM111.543 715.081H387.267V172.489H111.543V715.081Z" fill="white"/>
<path d="M392.87 726.91H105.944C105.907 726.91 105.872 726.852 105.846 726.75C105.82 726.648 105.805 726.51 105.805 726.366V161.22C105.805 161.076 105.82 160.937 105.846 160.835C105.872 160.733 105.907 160.676 105.944 160.676H392.87C392.907 160.676 392.942 160.733 392.968 160.835C392.994 160.937 393.009 161.076 393.009 161.22V726.366C393.009 726.51 392.994 726.648 392.968 726.75C392.942 726.852 392.907 726.91 392.87 726.91ZM106.082 725.822H392.732V161.764H106.082V725.822Z" fill="white"/>
<path d="M398.788 738.538H100.031C99.9939 738.538 99.9588 738.481 99.9328 738.379C99.9069 738.277 99.8923 738.138 99.8923 737.994V149.565C99.8923 149.421 99.9069 149.282 99.9328 149.18C99.9588 149.078 99.9939 149.021 100.031 149.021H398.788C398.824 149.021 398.86 149.078 398.885 149.18C398.911 149.282 398.926 149.421 398.926 149.565V737.994C398.926 738.138 398.911 738.277 398.885 738.379C398.86 738.481 398.824 738.538 398.788 738.538ZM100.169 737.45H398.649V150.109H100.169V737.45Z" fill="white"/>
<path d="M405.211 751.189H93.6102C93.5735 751.189 93.5383 751.132 93.5124 751.029C93.4865 750.927 93.4719 750.789 93.4719 750.645V136.93C93.4719 136.786 93.4865 136.648 93.5124 136.546C93.5383 136.444 93.5735 136.386 93.6102 136.386H405.211C405.248 136.386 405.283 136.444 405.309 136.546C405.335 136.648 405.349 136.786 405.349 136.93V750.645C405.349 750.789 405.335 750.927 405.309 751.029C405.283 751.132 405.248 751.189 405.211 751.189ZM93.7484 750.101H405.073V137.474H93.7484V750.101Z" fill="white"/>
<path d="M412.214 764.955H86.6159C86.5792 764.955 86.5441 764.898 86.5182 764.796C86.4922 764.694 86.4777 764.555 86.4777 764.411V123.158C86.4777 123.014 86.4922 122.876 86.5182 122.774C86.5441 122.672 86.5792 122.614 86.6159 122.614H412.214C412.25 122.614 412.285 122.672 412.311 122.774C412.337 122.876 412.352 123.014 412.352 123.158V764.411C412.352 764.555 412.337 764.694 412.311 764.796C412.285 764.898 412.25 764.955 412.214 764.955ZM86.7542 763.867H412.075V123.703H86.7542V763.867Z" fill="white"/>
</g>
</g>
<defs>
<clipPath id="clip0_218_2">
<rect width="496" height="1045" fill="white"/>
</clipPath>
<clipPath id="clip1_218_2">
<rect width="2252" height="3472" fill="white" transform="translate(-406 -1213)"/>
</clipPath>
</defs>
</svg>
